<?xml version="1.0" encoding="UTF-8"?>
<svg width="500" height="650" xmlns="http://www.w3.org/2000/svg" xmlns:xlink="http://www.w3.org/1999/xlink">
 <defs>
  <linearGradient id="linearGradient5562">
   <stop stop-color="#b3b3b3" id="stop5564" offset="0"/>
   <stop stop-color="#b3b3b3" stop-opacity="0" id="stop5566" offset="1"/>
  </linearGradient>
  <linearGradient id="linearGradient5477">
   <stop stop-color="#999999" id="stop5479" offset="0"/>
   <stop stop-color="#999999" stop-opacity="0" id="stop5481" offset="1"/>
  </linearGradient>
  <filter id="filter5698">
   <feGaussianBlur id="feGaussianBlur5700" stdDeviation="0.37472"/>
  </filter>
  <filter height="1.00759" y="-0.0038" width="1.24013" x="-0.12007" id="filter5702">
   <feGaussianBlur id="feGaussianBlur5704" stdDeviation="0.37472"/>
  </filter>
  <filter id="filter5706">
   <feGaussianBlur id="feGaussianBlur5708" stdDeviation="0.37472"/>
  </filter>
  <filter height="1.00839" y="-0.00419" width="1.32757" x="-0.16378" id="filter5710">
   <feGaussianBlur id="feGaussianBlur5712" stdDeviation="0.37472"/>
  </filter>
  <filter id="filter5714">
   <feGaussianBlur id="feGaussianBlur5716" stdDeviation="0.37472"/>
  </filter>
  <filter id="filter5718">
   <feGaussianBlur id="feGaussianBlur5720" stdDeviation="0.37472"/>
  </filter>
  <filter id="filter5722">
   <feGaussianBlur id="feGaussianBlur5724" stdDeviation="0.37472"/>
  </filter>
  <filter id="filter5726">
   <feGaussianBlur id="feGaussianBlur5728" stdDeviation="0.37472"/>
  </filter>
  <linearGradient y2="0.49888" x2="0.27669" y1="0.49888" x1="-0.16877" id="linearGradient5798" xlink:href="#linearGradient5562"/>
  <linearGradient y2="0.49883" x2="0.6956" y1="0.49883" x1="1.14854" gradientTransform="translate(-7.8989106e-2,1.6043015e-2)" id="linearGradient5800" xlink:href="#linearGradient5562"/>
  <linearGradient y2="0.36998" x2="1.04194" y1="0.36998" x1="0.32571" id="linearGradient5804" xlink:href="#linearGradient5477"/>
 </defs>
 <metadata id="metadata3501">image/svg+xml</metadata>
 <g>
  <title>Layer 1</title>
  <g display="inline" id="layer3">
   <g display="inline" id="g5743">
    <path fill="#f9f9f9" fill-rule="evenodd" stroke="#000000" stroke-width="1px" d="m111.431396,231.049454c0,15.834351 0,31.668716 0,47.503067c0,14.900299 0.73082,29.678497 0.73082,44.579773c0,25.844452 0,51.566223 0,77.466522c0,22.450775 -0.571686,44.868622 1.461624,67.235077c2.749176,30.240845 18.05365,42.684631 29.96347,66.504242c2.903198,5.806396 4.384888,25.172546 4.384888,31.42511c0,5.367615 30.579819,-12.385742 35.079178,-13.885559c28.462234,-9.487366 51.205872,-2.344666 76.004898,13.154724c14.377289,8.98584 29.992218,3.513672 45.310577,6.577332c12.824188,2.564819 18.958221,-0.851196 28.501801,-6.577332c8.961945,-5.377136 11.25647,-14.255554 14.616333,-22.655334c9.558533,-23.89624 12.481689,-55.100067 17.539612,-80.389709c7.175293,-35.876556 13.154694,-57.52475 13.154694,-95.006104c0,-30.121185 -4.384918,-60.113464 -4.384918,-90.621185c0,-17.783203 0,-35.566391 0,-53.349594" id="path5536"/>
    <path fill="#f9f9f9" fill-rule="evenodd" stroke="#000000" stroke-width="1px" d="m83.565948,216.309982c-3.912315,65.729233 -11.102287,148.979813 -11.102287,214.819168c-36.323891,95.606445 -46.600771,78.094574 -61.388551,110.269348c1.291699,6.458557 12.27827,15.376831 16.80877,19.001221c9.4748,7.579834 30.18726,9.247131 42.387329,15.347168c9.908348,4.954163 13.364128,12.111938 18.270393,21.924438c21.661346,41.338745 43.489098,29.987 80.389763,38.733276c7.39595,-49.235168 8.404968,-97.437317 1.461609,-146.810181c-2.334579,-68.750977 2.413025,-179.212219 4.664993,-247.181915" id="path5530"/>
    <path fill="#f9f9f9" fill-rule="evenodd" stroke="#000000" stroke-width="1px" d="m434.948456,201.843887c0,-5.846527 0,34.157349 0,40.003876c0,12.513412 0.30603,26.359695 -1.461639,38.733261c-21.852417,72.656189 17.575989,118.39679 35.079163,181.973206c1.796692,8.983429 14.749634,27.661377 16.951172,36.46759c1.711884,6.847473 1.145569,8.671204 -2.192444,15.347076c-3.934235,7.86853 -8.731171,9.773804 -16.808777,18.270447c-30.116577,46.933533 -82.875061,28.630188 -98.653015,77.123047c-4.210266,12.325928 -23.71579,11.122009 -35.042419,12.266785c-6.216919,1.55426 -1.325317,-16.491272 -2.378845,-22.812378c-0.944397,-5.666443 -1.082245,-11.671021 -0.427124,-17.412903c0.117126,-1.026184 0.25946,-2.043945 0.427124,-3.049927c1.678802,-10.07251 3.654114,-19.432556 3.654114,-29.96344c0,-9.013428 0,-18.026794 0,-27.040222c-6.029053,-83.342316 5.988678,-219.574249 1.64801,-264.311523" id="path5532"/>
    <path opacity="0.83755" fill="url(#linearGradient5798)" fill-rule="nonzero" stroke-width="2" stroke-linecap="round" stroke-miterlimit="4" d="m310.962952,571.260986c-0.253021,-0.252991 -9.36908,-0.874084 -20.257996,-1.380127c-22.13092,-1.028625 -23.388489,-1.338196 -37.156784,-9.147766c-17.908997,-10.158203 -36.660843,-15.311523 -50.520386,-13.884033c-7.954941,0.819336 -18.868073,3.35321 -22.6931,5.269043c-1.516571,0.759583 -3.168411,1.380981 -3.670792,1.380981c-0.50238,0 -1.236435,-9.075073 -1.631134,-20.166809c-0.39473,-11.091736 -1.132156,-22.923737 -1.638718,-26.293365c-2.318619,-15.423462 -3.069412,-54.900879 -2.019562,-106.194824c1.133835,-55.39743 3.537338,-131.052155 4.18219,-131.642303c0.213181,-0.195099 17.84848,6.288422 39.18956,14.407867c21.341064,8.119415 39.957672,14.762848 41.370224,14.763153c5.978851,0.001251 40.278503,-12.986908 65.404083,-24.766449c7.058014,-3.30896 13.146332,-6.016327 13.529633,-6.016327c1.214294,0 0.753174,31.220764 -1.432739,97.004883c-1.792664,53.949402 -2.015808,74.004395 -1.442871,129.680206c0.439148,42.680573 0.321869,66.785492 -0.333252,68.487396c-0.702515,1.824768 -2.831512,3.423828 -6.976746,5.23999c-5.756256,2.521973 -12.951538,4.208557 -13.901611,3.258484l0,0z" id="path5552"/>
    <path opacity="0.83755" fill="url(#linearGradient5800)" fill-rule="nonzero" stroke-width="2" stroke-linecap="round" stroke-miterlimit="4" d="m310.883972,571.277039c-0.252991,-0.252991 -9.36911,-0.874084 -20.257996,-1.380188c-22.13092,-1.028564 -23.388489,-1.338196 -37.156784,-9.147705c-17.908997,-10.158203 -36.660858,-15.311584 -50.520401,-13.884033c-7.954926,0.819336 -18.868042,3.35321 -22.6931,5.269043c-1.516556,0.759521 -3.168381,1.380981 -3.670792,1.380981c-0.50238,0 -1.23642,-9.075073 -1.631134,-20.166809c-0.394699,-11.091736 -1.132156,-22.923737 -1.638702,-26.293365c-2.318619,-15.423523 -3.069397,-54.900909 -2.019547,-106.194824c1.13382,-55.397461 3.537338,-131.052155 4.18219,-131.642334c0.213181,-0.195068 17.84848,6.288452 39.18956,14.407867c21.341049,8.119446 39.957657,14.762878 41.370209,14.763184c5.978821,0.001251 40.278473,-12.986908 65.404053,-24.766449c7.058044,-3.30899 13.146362,-6.016357 13.529663,-6.016357c1.214294,0 0.753143,31.220764 -1.43277,97.004883c-1.792633,53.949402 -2.015778,74.004425 -1.442871,129.680176c0.439178,42.680634 0.321869,66.785553 -0.333282,68.487457c-0.702454,1.824768 -2.831421,3.423828 -6.976685,5.23999c-5.756256,2.521973 -12.951538,4.208557 -13.901611,3.258484l0,0z" id="path5570"/>
    <path fill="none" fill-rule="evenodd" stroke="#000000" stroke-width="1px" filter="url(#filter5722)" d="m102.106308,233.285324c0,15.656952 0,39.482712 0,55.139633c-2.361649,17.763977 -11.741707,43.873413 -25.527596,56.160706" id="path5576"/>
    <path fill="none" fill-rule="evenodd" stroke="#000000" stroke-width="1px" filter="url(#filter5726)" d="m132.849823,277.251465c-1.64003,21.288483 -1.021103,42.883453 -1.021103,64.329529c0,14.929626 -4.819748,26.876312 -7.14772,40.844177c-1.755539,10.533264 -3.076691,20.488983 -5.10553,30.633118c-1.120033,5.600159 -3.775963,10.615234 -6.126617,15.316559" id="path5580"/>
    <path fill="none" fill-rule="evenodd" stroke="#000000" stroke-width="1px" filter="url(#filter5718)" d="m121.74749,455.359467c-5.8536,16.220306 -2.85762,38.0867 0.047783,54.731567c4.594856,26.323822 9.016586,51.302765 17.364883,76.948151c3.266846,10.035522 9.329559,16.782593 10.349136,27.366211" id="path5622"/>
    <path fill="none" fill-rule="evenodd" stroke="#000000" stroke-width="1px" filter="url(#filter5714)" d="m84.630257,450.773621c7.656464,15.312927 7.147743,36.897858 7.147743,54.1185c0,10.563507 -2.225807,18.838837 -6.126633,28.590851c-2.827454,7.068665 -2.042206,16.905334 -2.042206,24.506531" id="path5624"/>
    <path fill="none" fill-rule="evenodd" stroke="#000000" stroke-width="1px" filter="url(#filter5710)" d="m358.403381,245.538589c-2.944092,24.863998 5.053955,52.2827 -1.021057,76.582809c-4.829163,19.316589 0,46.302094 0,66.371735c0,14.783722 2.526459,32.780548 -1.021149,46.970795c-1.739594,6.958435 0,16.269287 0,23.485413" id="path5626"/>
    <path fill="none" fill-rule="evenodd" stroke="#000000" stroke-width="1px" filter="url(#filter5706)" d="m385.238434,423.327972c0.827179,29.601135 -13.560669,85.18634 -13.560669,107.098602c0,23.034241 -4.596954,53.105408 -10.211029,75.561707" id="path5628"/>
    <path fill="none" fill-rule="evenodd" stroke="#000000" stroke-width="1px" filter="url(#filter5702)" d="m395.163147,248.601883c0,44.749008 -1.879578,91.320877 3.063293,135.806839c3.450012,31.049957 3.063354,61.65802 3.063354,92.920471c0,6.691803 -0.784973,5.49472 -1.021149,7.147736" id="path5630"/>
    <path fill="none" fill-rule="evenodd" stroke="#000000" stroke-width="1px" filter="url(#filter5698)" d="m416.606323,336.41684c0,6.46701 0,12.93399 0,19.401001c0,21.345001 4.408966,82.337311 14.295471,102.110382c1.36145,2.722931 2.722961,5.445892 4.084412,8.168823c4.944733,9.889435 12.253265,25.453583 12.253265,36.759735c0,10.090607 4.084381,18.733002 4.084381,28.590912c0,0.680725 0,1.36145 0,2.042175" id="path5632"/>
    <g display="inline" id="g5497">
     <path fill="#ffffff" fill-rule="evenodd" stroke="#000000" stroke-width="2" stroke-miterlimit="4" id="path5377" d="m8.76633,192.213196c116.693563,-105.575836 234.236783,-182.039475 234.601193,-182.064606c191.443024,105.762802 246.270447,167.578049 246.424469,167.750214c-166.324432,105.126831 -232.967804,119.36676 -234.254852,119.454498c-245.23594,-90.897736 -247.10183,-104.663559 -247.09892,-104.672287"/>
     <path fill="#ffffff" fill-rule="nonzero" stroke="#00000e" stroke-width="2" stroke-linecap="round" stroke-miterlimit="4" id="path5387" d="m31.242201,189.126999l-11.600901,-5.569992l2.525999,-2.212006c56.1668,-49.184006 110.274702,-92.104202 170.493696,-135.241592c18.596008,-13.321198 49.909012,-34.692499 50.831009,-34.692499c0.743988,0 35.01001,19.4298 54.617004,30.968699c72.673981,42.770805 131.997986,83.51339 171.571991,117.83139l9.010986,7.815002l-6.717987,3.985001c-80.085999,52.401001 -135.165985,82.710999 -218.794998,108.46199c-77.113998,-23.062988 -149.595001,-56.527985 -221.9368,-91.345993l0,0z"/>
     <path fill="#947ba3" fill-rule="nonzero" stroke="#000000" stroke-width="2" stroke-linecap="round" stroke-miterlimit="4" id="path5389" d="m19.447701,183.065002l2.5261,-2.212006c56.166801,-49.18399 110.275192,-92.104797 170.493195,-135.242096c18.596008,-13.321301 49.909012,-34.692501 50.831009,-34.692501c0.744003,0 35.010986,19.429701 54.617004,30.968601c72.673981,42.770798 131.997986,83.513 171.571991,117.831993l9.011993,7.814011c-41.339996,28.190994 -85.863983,57.003998 -133.27298,77.214996c-1.978027,0.395996 -3.373016,-3.268997 -8.169006,-8.865005c-2.869019,-3.347 -13.522003,-14.636002 -23.674011,-25.085999c-10.152985,-10.451004 -28.815002,-29.854004 -41.471985,-43.119003c-12.656006,-13.263992 -23.475006,-24.225998 -24.042007,-24.360001c-2.841003,-0.67099 -42.822006,44.84201 -79.018005,89.951004c-5.724991,7.13501 -10.645996,12.960999 -10.936005,12.947998c-46.759995,-19.843002 -93.769295,-39.185989 -138.467293,-63.151993l0,0l0,0z"/>
     <g id="g5487">
      <path fill="#ffffff" fill-rule="evenodd" stroke="#000000" stroke-width="2" stroke-miterlimit="4" id="path5413" d="m357.186005,73.652603c-18.833008,21.820587 -23.221008,26.0299 -39.489014,46.962387c-2.052002,2.994003 -3.042999,7.714005 -0.084991,10.474014c2.023987,2.544998 7.278992,3.121979 8.003998,-0.850021c0.65799,-3.015991 0.839996,-3.535995 2.149994,-6.382996c10.472015,-12.353996 19.067017,-23.842995 32.351013,-39.468201c1.42099,-2.7705 4.830994,-6.490799 2.242981,-9.502296c-1.371979,-1.255104 -3.393982,-1.577003 -5.173981,-1.232887l0,0z"/>
      <path fill="url(#linearGradient5804)" fill-rule="evenodd" stroke-width="2" stroke-miterlimit="4" id="path5467" d="m357.526001,74.812202c-18.834015,21.820587 -22.575989,25.061386 -38.843994,45.993797c-2.052002,2.994003 -3.608002,6.584 -0.649994,9.343994c2.023987,2.545013 6.067993,3.767014 6.792999,-0.203995c0.65799,-3.015999 0.92099,-3.697998 2.230988,-6.544998c10.472015,-12.354004 19.066986,-24.0037 32.351013,-39.629303c1.42099,-2.7705 4.587982,-5.522301 2.000977,-8.533699c-1.371979,-1.255196 -2.102997,-0.769897 -3.881989,-0.425797l0,0z"/>
     </g>
     <use height="350" width="600" id="use5491" xlink:href="#g5487" y="28.50183" x="43.84896"/>
    </g>
   </g>
  </g>
  <g display="inline" id="layer4">
   <g id="g5458"/>
  </g>
  <g id="svg_2">
   <g>
    <title transform="translate(-3,-2) translate(-24,-25) translate(142,117) translate(0,0) scale(2.1666667461395264) translate(0,0) translate(143.84046936035156,132.302001953125) scale(0.6167708039283752) translate(-143.84046936035156,-132.302001953125) translate(215.25588989257812,195.79971313476562) scale(0.9603394865989685) translate(-215.25588989257812,-195.79971313476562) translate(167.54161071777344,203.88592529296875) scale(1,1.1101291179656982) translate(-167.54161071777344,-203.88592529296875) ">Layer 1</title>
    <path d="m234.436584,220.840652l12.317627,0l0,-9.420792l-12.001785,0l-11.685928,0l0,-32.407516l51.481171,0l0,32.407516l-21.476776,0l0,9.420792l24.003448,0l0,7.15979l-24.003448,0l0,8.290298l19.265869,0l0,7.159836l-19.265869,0l0,9.043945l31.583466,0l0,7.159836l-72.642014,0l0,-7.159836l34.741867,0l0,-9.043945l-21.16095,0l0,-7.159836l21.16095,0l0,-8.290298l-16.107544,0c-4.000687,5.275726 -7.896011,9.169617 -11.685959,11.681732l-3.158295,-6.406006c6.948242,-5.024368 12.317459,-12.058563 16.107559,-21.102646l5.369095,3.391571c0.842255,1.004807 0.526413,1.63295 -0.947479,1.884125l-1.895004,3.391434zm-5.053375,-28.63916l38.847748,0l0,-7.159821l-38.847748,0l0,7.159821zm0,6.029221l0,7.159805l38.847748,0l0,-7.159805l-38.847748,0z" id="svg_1" fill="#947ba3"/>
   </g>
  </g>
 </g>
</svg>