<svg width="100" height="100" xmlns="http://www.w3.org/2000/svg" preserveAspectRatio="xMidYMid meet">

 <g>
  <title>Layer 1</title>
  <g id="svg_5">
   <path fill="#000000" d="m38.501755,14.297936c0,0.201219 2.67334,2.932063 5.9216,6.065333c4.915493,4.77177 5.950336,5.662882 6.266544,5.31793c0.862366,-0.948597 9.284832,-11.067059 9.486046,-11.41201c0.172478,-0.258702 -2.069675,-0.344942 -10.722115,-0.344942c-8.738667,0 -10.952076,0.08624 -10.952076,0.373689z" id="svg_2"/>
   <path fill="#000000" d="m1.017463,33.787468c-0.258709,1.3223 -0.20122,5.116726 0.114984,9.026119c2.155925,24.922451 14.976468,39.985157 36.506938,42.85973c1.667248,0.201218 3.162018,0.402443 3.305748,0.402443c0.17247,0 -1.006104,-1.322296 -2.587105,-2.93206c-7.502611,-7.675087 -11.929436,-18.081001 -13.108006,-30.786556c-0.402439,-4.110626 -0.172474,-11.670723 0.459929,-15.86758c0.229967,-1.58102 0.431185,-3.047043 0.431185,-3.248268c0,-0.258701 -2.673342,-0.344933 -12.475597,-0.344933l-12.446855,0l-0.20122,0.891106z" id="svg_3"/>
   <path fill="#000000" d="m73.858871,33.241295c0,0.201225 0.201218,1.667248 0.431183,3.248268c0.632401,4.196857 0.862366,11.756954 0.459923,15.86758c-1.178574,12.705555 -5.605385,23.111469 -13.107998,30.786556c-1.581017,1.609764 -2.730835,2.93206 -2.587109,2.93206c0.172474,0 1.6385,-0.201225 3.305748,-0.402443c21.530464,-2.874573 34.351013,-17.937279 36.506935,-42.85973c0.316193,-3.909393 0.373695,-7.703819 0.114975,-9.026119l-0.172455,-0.891106l-12.475609,0c-9.802269,0 -12.475594,0.086231 -12.475594,0.344933z" id="svg_4"/>
  </g>
 </g>
</svg>