<svg width="720" height="720" viewBox="0 0 72 72" fill="none" xmlns="http://www.w3.org/2000/svg">
<path d="M33.1923 42.532L31.9959 40.9294C31.4902 41.3069 31.1923 41.9009 31.1923 42.532H33.1923ZM38.5096 32.6539V30.6539C37.5417 30.6539 36.7127 31.347 36.5413 32.2996L38.5096 32.6539ZM57.7596 32.6539L59.728 32.2996C59.5565 31.347 58.7275 30.6539 57.7596 30.6539V32.6539ZM63.0769 42.532H65.0769C65.0769 41.9009 64.7791 41.3069 64.2733 40.9293L63.0769 42.532ZM63.0769 54V56C64.1815 56 65.0769 55.1046 65.0769 54H63.0769ZM33.1923 54H31.1923C31.1923 55.1046 32.0878 56 33.1923 56V54ZM34.3887 44.1347C37.4868 41.822 39.6337 37.6994 40.478 33.0081L36.5413 32.2996C35.813 36.3461 34.0335 39.4083 31.9959 40.9294L34.3887 44.1347ZM38.5096 34.6539L57.7596 34.6539V30.6539L38.5096 30.6539V34.6539ZM55.7913 33.0081C56.6356 37.6993 58.7825 41.822 61.8805 44.1347L64.2733 40.9293C62.2357 39.4082 60.4563 36.3461 59.728 32.2996L55.7913 33.0081ZM61.0769 42.532V54H65.0769V42.532H61.0769ZM63.0769 52H33.1923V56H63.0769V52ZM35.1923 54V42.532H31.1923V54H35.1923Z" fill="black"/>
<path d="M48.4754 17L50.4703 16.8584C50.396 15.8114 49.525 15 48.4754 15V17ZM53.8889 32.6538V34.6538C54.6511 34.6538 55.3471 34.2206 55.6835 33.5366C56.0199 32.8526 55.9383 32.0368 55.473 31.433L53.8889 32.6538ZM15.9551 17V15C14.9085 15 14.0389 15.8069 13.9607 16.8505L15.9551 17ZM9 33.582L7.66441 32.0933C7.24157 32.4727 7 33.0139 7 33.582H9ZM9 46.9774H7C7 48.082 7.89543 48.9774 9 48.9774V46.9774ZM33.1923 46.9774V48.9774C34.2969 48.9774 35.1923 48.082 35.1923 46.9774H33.1923ZM33.1923 42.532L31.9959 40.9293C31.4902 41.3069 31.1923 41.9009 31.1923 42.532H33.1923ZM38.5097 32.6538V30.6538C37.5417 30.6538 36.7127 31.347 36.5413 32.2996L38.5097 32.6538ZM46.4804 17.1416C46.9482 23.733 49.0651 29.6708 52.3047 33.8746L55.473 31.433C52.8005 27.9649 50.8934 22.8203 50.4703 16.8584L46.4804 17.1416ZM15.9551 19H48.4754V15H15.9551V19ZM10.3356 35.0707C14.5838 31.2594 17.3893 24.6238 17.9495 17.1495L13.9607 16.8505C13.4521 23.6368 10.9225 29.1703 7.66441 32.0933L10.3356 35.0707ZM11 46.9774V33.582H7V46.9774H11ZM33.1923 44.9774H9V48.9774H33.1923V44.9774ZM35.1923 46.9774V42.532H31.1923V46.9774H35.1923ZM34.3887 44.1347C37.4868 41.822 39.6337 37.6993 40.478 33.0081L36.5413 32.2996C35.813 36.3461 34.0335 39.4082 31.9959 40.9293L34.3887 44.1347ZM38.5097 34.6538H53.8889V30.6538H38.5097V34.6538Z" fill="black"/>
</svg>
