<?xml version="1.0" encoding="UTF-8" standalone="no"?>
<svg
   xmlns:dc="http://purl.org/dc/elements/1.1/"
   xmlns:cc="http://creativecommons.org/ns#"
   xmlns:rdf="http://www.w3.org/1999/02/22-rdf-syntax-ns#"
   xmlns:svg="http://www.w3.org/2000/svg"
   xmlns="http://www.w3.org/2000/svg"
   xmlns:sodipodi="http://sodipodi.sourceforge.net/DTD/sodipodi-0.dtd"
   xmlns:inkscape="http://www.inkscape.org/namespaces/inkscape"
   width="100"
   height="100"
   viewBox="0 0 26.458333 26.458334"
   version="1.1"
   id="svg8"
   inkscape:version="1.0.2 (e86c870879, 2021-01-15)"
   sodipodi:docname="Símbolo do Clã Izuno.svg">
  <title
     id="title963">Símbolo do Clã Izuno</title>
  <defs
     id="defs2">
    <pattern
       id="EMFhbasepattern"
       patternUnits="userSpaceOnUse"
       width="6"
       height="6"
       x="0"
       y="0" />
    <pattern
       id="EMFhbasepattern-0"
       patternUnits="userSpaceOnUse"
       width="6"
       height="6"
       x="0"
       y="0" />
    <pattern
       id="EMFhbasepattern-9"
       patternUnits="userSpaceOnUse"
       width="6"
       height="6"
       x="0"
       y="0" />
    <pattern
       id="EMFhbasepattern-09"
       patternUnits="userSpaceOnUse"
       width="6"
       height="6"
       x="0"
       y="0" />
  </defs>
  <sodipodi:namedview
     id="base"
     pagecolor="#ffffff"
     bordercolor="#666666"
     borderopacity="1.0"
     inkscape:pageopacity="0.0"
     inkscape:pageshadow="2"
     inkscape:zoom="1.979899"
     inkscape:cx="8.9041096"
     inkscape:cy="106.93669"
     inkscape:document-units="mm"
     inkscape:current-layer="layer1"
     inkscape:document-rotation="0"
     showgrid="false"
     showguides="false"
     inkscape:guide-bbox="true"
     units="px"
     inkscape:window-width="1344"
     inkscape:window-height="728"
     inkscape:window-x="0"
     inkscape:window-y="0"
     inkscape:window-maximized="0">
    <sodipodi:guide
       position="111.69196,178.88245"
       orientation="1,0"
       id="guide931" />
    <sodipodi:guide
       position="120.94367,180.57317"
       orientation="1,0"
       id="guide933" />
    <sodipodi:guide
       position="114.29055,182.37873"
       orientation="1,0"
       id="guide935" />
    <sodipodi:guide
       position="118.28219,180.93015"
       orientation="1,0"
       id="guide937" />
    <sodipodi:guide
       position="118.37325,185.16668"
       orientation="0,-1"
       id="guide939" />
    <sodipodi:guide
       position="120.94367,180.57317"
       orientation="0,-1"
       id="guide941" />
    <sodipodi:guide
       position="108.65152,179.85373"
       orientation="0,-1"
       id="guide943" />
    <sodipodi:guide
       position="106.73395,177.38931"
       orientation="0,-1"
       id="guide945" />
    <sodipodi:guide
       position="123.31473,158.89695"
       orientation="0,-1"
       id="guide947" />
    <sodipodi:guide
       position="122.3759,161.1539"
       orientation="0,-1"
       id="guide949" />
    <sodipodi:guide
       position="112.10286,116.19217"
       orientation="1,0"
       id="guide951" />
    <sodipodi:guide
       position="115.99607,116.93259"
       orientation="1,0"
       id="guide953" />
    <sodipodi:guide
       position="116.84689,118.09646"
       orientation="0,-1"
       id="guide955" />
    <sodipodi:guide
       position="125.09015,156.17827"
       orientation="1,0"
       id="guide957" />
    <sodipodi:guide
       position="107.06078,156.17827"
       orientation="1,0"
       id="guide959" />
    <sodipodi:guide
       position="111.69197,187.81806"
       orientation="0,-1"
       id="guide961" />
  </sodipodi:namedview>
  <metadata
     id="metadata5">
    <rdf:RDF>
      <cc:Work
         rdf:about="">
        <dc:format>image/svg+xml</dc:format>
        <dc:type
           rdf:resource="http://purl.org/dc/dcmitype/StillImage" />
        <dc:title>Símbolo do Clã Izuno</dc:title>
        <dc:date>15/11/2021</dc:date>
        <dc:creator>
          <cc:Agent>
            <dc:title>Lukas Pessoa Dantas</dc:title>
          </cc:Agent>
        </dc:creator>
        <dc:description>Instagram: @luke.dantas</dc:description>
      </cc:Work>
    </rdf:RDF>
  </metadata>
  <g
     inkscape:label="Layer 1"
     inkscape:groupmode="layer"
     id="layer1">
    <path
       style="fill:#000000;stroke-width:0.124438"
       d="M 11.101325,23.832309 C 10.080494,21.808258 9.8589974,21.168978 9.8597003,15.150359 l -7.029e-4,-4.013141 h 3.1731746 3.173174 l -7.03e-4,4.013141 c -7.03e-4,2.875264 -0.05189,4.34832 -0.181125,5.195291 -0.310593,2.035542 -1.034343,3.778173 -2.117587,5.098723 -0.467537,0.569957 -0.902063,1.01396 -0.902063,1.01396 -0.813898,-0.5571 -1.453668,-1.758425 -1.902543,-2.626024 z m 2.935559,-0.526483 c 0.23354,-0.459347 0.576078,-1.32731 0.761191,-1.928794 0.33138,-1.07672 0.337295,-1.156491 0.383194,-5.168953 l 0.04659,-4.075348 h -2.195751 -2.195754 l 0.04659,4.075348 c 0.04588,4.013378 0.05173,4.092004 0.383494,5.169988 0.345657,1.123212 0.866399,2.257006 1.422702,3.097637 l 0.315016,0.476018 0.304015,-0.405353 c 0.167218,-0.222942 0.495107,-0.781187 0.728646,-1.240543 z m -2.926722,-13.101889 4.784053,-7.4022759 4.276494,0.00158 -4.217461,7.4003329 z m 7.364613,-6.5228383 -1.899234,-0.010188 -3.730283,5.714871 h 2.40467 z M 6.2876243,2.8034459 h 4.1313087 l 2.262732,3.4570514 -2.294534,3.5991878 z M 11.450631,6.3112692 9.7439492,3.6709269 H 7.9757632 L 10.414045,7.9018291 Z M 11.467531,2.5939695 11.489251,2.1666666e-7 H 14.74586 L 14.745852,2.5502025 13.146835,5.3791644 Z m 2.341445,-1.66068778 h -1.40506 V 2.5502025 l 0.748398,1.2464576 0.656662,-1.2464576 z"
       id="path927"
       sodipodi:nodetypes="ccccccssccssscccssscsscccccccccccccccccccccccccccccccc" />
  </g>
</svg>
