<?xml version="1.0" encoding="UTF-8" standalone="no"?>
<svg xmlns:dc="http://purl.org/dc/elements/1.1/" xmlns:cc="http://creativecommons.org/ns#" xmlns:rdf="http://www.w3.org/1999/02/22-rdf-syntax-ns#" xmlns:svg="http://www.w3.org/2000/svg" xmlns="http://www.w3.org/2000/svg" id="svg8" version="1.1" viewBox="0 0 26.458333 26.458334" height="100" width="100">
  <defs id="defs2"/>
  <metadata id="metadata5">
    <rdf:RDF>
      <cc:Work rdf:about="">
        <dc:format>image/svg+xml</dc:format>
        <dc:type rdf:resource="http://purl.org/dc/dcmitype/StillImage"/>
        <dc:title/>
      </cc:Work>
    </rdf:RDF>
  </metadata>
  <g transform="translate(0,-270.54165)" id="layer1">
    <g transform="matrix(0.9699988,0,0,0.96994774,-52.953043,104.06708)" style="stroke:#000000;stroke-width:0.81832153;stroke-miterlimit:4;stroke-dasharray:none;stroke-opacity:1" id="g4527">
      <path d="m 81.45833,186.59375 a 13.229166,11.90625 0 0 1 -6.614583,10.31112 13.229166,11.90625 0 0 1 -13.229166,-10e-6 13.229166,11.90625 0 0 1 -6.614583,-10.31111 l 13.229166,0 z" id="path4508" style="fill:#ffffff;fill-opacity:1;stroke:#000000;stroke-width:0.81832153;stroke-miterlimit:4;stroke-dasharray:none;stroke-opacity:1"/>
      <path style="fill:#ffdd55;fill-opacity:1;stroke:#000000;stroke-width:0.81832153;stroke-miterlimit:4;stroke-dasharray:none;stroke-opacity:1" id="path4512" d="m -69.552086,-172.04167 a 11.90625,11.90625 0 0 1 -8.41899,-3.48726 11.90625,11.90625 0 0 1 -3.48726,-8.41899 l 11.90625,0 z" transform="scale(-1)"/>
      <path d="m 183.94792,-55 a 11.90625,11.90625 0 0 1 -8.41899,-3.48726 11.90625,11.90625 0 0 1 -3.48726,-8.418991 l 11.90625,10e-7 z" id="path4514" style="fill:#ffdd55;fill-opacity:1;stroke:#000000;stroke-width:0.81832153;stroke-miterlimit:4;stroke-dasharray:none;stroke-opacity:1" transform="rotate(90)"/>
    </g>
  </g>
</svg>