<?xml version="1.0" encoding="UTF-8" ?>
<!DOCTYPE svg PUBLIC "-//W3C//DTD SVG 1.1//EN" "http://www.w3.org/Graphics/SVG/1.1/DTD/svg11.dtd">
<svg width="161pt" height="161pt" viewBox="0 0 161 161" version="1.1" xmlns="http://www.w3.org/2000/svg">
<path fill="#000000" d=" M 58.95 44.37 C 66.10 37.45 73.08 30.36 80.20 23.40 C 87.85 30.09 94.98 37.34 102.04 44.63 C 94.87 51.56 87.89 58.69 80.75 65.64 C 73.16 58.89 66.03 51.65 58.95 44.37 Z" />
<path fill="#ef8c1f" d=" M 80.40 28.02 C 86.00 33.52 91.57 39.05 97.09 44.63 C 91.43 50.03 85.92 55.58 80.36 61.07 C 74.96 55.43 69.42 49.92 63.94 44.37 C 69.51 39.01 75.00 33.56 80.40 28.02 Z" />
<path fill="#000000" d=" M 22.36 81.76 C 31.76 71.26 41.97 61.54 51.97 51.63 C 61.73 61.13 71.28 70.84 80.99 80.38 C 90.75 71.41 99.12 60.89 109.74 52.88 C 120.12 61.70 129.37 71.79 138.64 81.75 C 119.44 101.13 100.14 120.44 80.75 139.64 C 60.73 120.93 41.79 101.08 22.36 81.76 Z" />
<path fill="#ef8c1f" d=" M 52.39 56.04 C 61.99 65.42 71.43 74.97 80.99 84.39 C 90.36 75.17 99.62 65.85 108.98 56.64 C 117.45 64.85 125.78 73.21 134.04 81.63 C 115.98 99.26 98.37 117.34 80.38 135.05 C 62.74 116.99 44.66 99.37 26.96 81.38 C 35.53 73.03 43.98 64.56 52.39 56.04 Z" />
</svg>
