<?xml version="1.0" encoding="UTF-8" standalone="no"?>
<!-- Created with Inkscape (http://www.inkscape.org/) -->

<svg
   xmlns:dc="http://purl.org/dc/elements/1.1/"
   xmlns:cc="http://creativecommons.org/ns#"
   xmlns:rdf="http://www.w3.org/1999/02/22-rdf-syntax-ns#"
   xmlns:svg="http://www.w3.org/2000/svg"
   xmlns="http://www.w3.org/2000/svg"
   xmlns:xlink="http://www.w3.org/1999/xlink"
   xmlns:sodipodi="http://sodipodi.sourceforge.net/DTD/sodipodi-0.dtd"
   xmlns:inkscape="http://www.inkscape.org/namespaces/inkscape"
   width="100"
   height="100"
   id="svg5161"
   version="1.1"
   inkscape:version="0.47 r22583"
   sodipodi:docname="New document 37">
  <defs
     id="defs5163">
    <inkscape:perspective
       sodipodi:type="inkscape:persp3d"
       inkscape:vp_x="0 : 526.18109 : 1"
       inkscape:vp_y="0 : 1000 : 0"
       inkscape:vp_z="744.09448 : 526.18109 : 1"
       inkscape:persp3d-origin="372.04724 : 350.78739 : 1"
       id="perspective5169" />
    <inkscape:perspective
       id="perspective5232"
       inkscape:persp3d-origin="0.5 : 0.33333333 : 1"
       inkscape:vp_z="1 : 0.5 : 1"
       inkscape:vp_y="0 : 1000 : 0"
       inkscape:vp_x="0 : 0.5 : 1"
       sodipodi:type="inkscape:persp3d" />
    <radialGradient
       r="83.034187"
       fy="82.343224"
       fx="-1021.5062"
       cy="82.343224"
       cx="-1021.5062"
       gradientTransform="matrix(1,0,0,0.85945027,0,11.573318)"
       gradientUnits="userSpaceOnUse"
       id="radialGradient3492"
       xlink:href="#linearGradientUnknown"
       inkscape:collect="always" />
    <linearGradient
       id="linearGradientUnknown">
      <stop
         style="stop-color:#afafaf;stop-opacity:0;"
         id="stopUnknown0"
         offset="0" />
      <stop
         offset="0.5"
         id="stop6169"
         style="stop-color:#afafaf;stop-opacity:0.39215687;" />
      <stop
         style="stop-color:#afafaf;stop-opacity:1;"
         id="stopUnknown1"
         offset="1" />
    </linearGradient>
  </defs>
  <sodipodi:namedview
     id="base"
     pagecolor="#ffffff"
     bordercolor="#666666"
     borderopacity="1.0"
     inkscape:pageopacity="0.0"
     inkscape:pageshadow="2"
     inkscape:zoom="0.35"
     inkscape:cx="47.857143"
     inkscape:cy="141.42857"
     inkscape:document-units="px"
     inkscape:current-layer="layer1"
     showgrid="false"
     inkscape:window-width="566"
     inkscape:window-height="488"
     inkscape:window-x="88"
     inkscape:window-y="88"
     inkscape:window-maximized="0" />
  <metadata
     id="metadata5166">
    <rdf:RDF>
      <cc:Work
         rdf:about="">
        <dc:format>image/svg+xml</dc:format>
        <dc:type
           rdf:resource="http://purl.org/dc/dcmitype/StillImage" />
        <dc:title></dc:title>
      </cc:Work>
    </rdf:RDF>
  </metadata>
  <g
     inkscape:label="Layer 1"
     inkscape:groupmode="layer"
     id="layer1"
     transform="translate(-327.14286,-573.79076)">
    <g
       id="Forest Country"
       transform="translate(27.142883,-978.57144)">
      <path
         transform="matrix(0.60013489,0,0,0.70318836,963.0415,1544.4594)"
         d="m -941.87268,82.343224 c 0,37.534986 -35.65315,67.963116 -79.63352,67.963116 -43.9804,0 -79.6336,-30.42813 -79.6336,-67.963116 0,-37.534991 35.6532,-67.963112 79.6336,-67.963112 43.98037,0 79.63352,30.428121 79.63352,67.963112 z"
         sodipodi:ry="67.963112"
         sodipodi:rx="79.633545"
         sodipodi:cy="82.343224"
         sodipodi:cx="-1021.5062"
         id="Forest Country Icon"
         style="fill:url(#radialGradient3492);fill-opacity:1;stroke:#000000;stroke-width:6.8012886;stroke-linecap:butt;stroke-linejoin:round;stroke-miterlimit:4;stroke-opacity:1;stroke-dasharray:none;stroke-dashoffset:55.5000029"
         sodipodi:type="arc" />
      <path
         d="m 316.81815,1592.8168 c 10.90907,-1.6161 20.40401,-5.6565 28.48485,-12.1212 l -23.63637,0 0,-5.7576 24.54546,0 0,-7.5758 5.75757,0 c 1.61612,0.2021 1.71713,0.8082 0.30303,1.8182 l 0,5.7576 25.15152,0 0,5.7576 -23.63636,0 c 6.06055,5.4546 15.85852,9.2929 29.39394,11.5151 l -2.12122,6.3637 c -12.92935,-3.0303 -22.5253,-7.2727 -28.78788,-12.7273 l 0,13.6363 -6.0606,0 0,-13.6363 c -6.86872,6.4647 -15.7576,11.0101 -26.66667,13.6363 z m 65.45455,38.7879 c -6.66674,-4.6465 -11.3132,-9.293 -13.9394,-13.9394 l 0,19.6969 -6.06061,0 0,-20 c -3.03035,6.0606 -7.67681,11.1111 -13.93939,15.1515 l -3.33333,-5.7575 c 7.27268,-4.0404 12.5252,-9.394 15.75757,-16.0606 l -10,0 0,-5.7576 11.51515,0 0,-8.7879 5.75758,0 c 2.02014,0.4041 2.12115,1.0101 0.30303,1.8182 l 0,6.9697 13.9394,0 0,5.7576 -13.03031,0 c 3.03024,5.4545 8.18175,10.303 15.45455,14.5454 l -2.42424,6.3637 z m -46.06061,5.7575 -6.06061,0 0,-16.9697 c -1.61618,3.4344 -5.45456,7.5758 -11.51515,12.4243 l -3.33333,-5.7576 c 5.85857,-3.6364 10.60604,-9.0909 14.24242,-16.3636 l -12.42424,0 0,-5.7576 13.0303,0 0,-7.8788 5.75758,0 c 1.61613,0.2021 1.71714,0.8081 0.30303,1.8182 l 0,6.0606 11.21212,0 0,5.7576 -11.21212,0 0,3.3333 c 4.04037,1.4142 7.67673,3.6364 10.90909,6.6667 l -3.9394,5.4545 c -2.02023,-2.2222 -4.34346,-4.2424 -6.96969,-6.0606 z"
         id="Forest Country Kanji"
         style="font-size:77.57575989px;font-style:normal;font-variant:normal;font-weight:normal;font-stretch:normal;text-align:center;text-anchor:middle;fill:#000000;fill-opacity:1;stroke:none;font-family:MS PGothic;-inkscape-font-specification:MS PGothic" />
    </g>
  </g>
</svg>
