<?xml version="1.0" encoding="UTF-8" ?>
<!DOCTYPE svg PUBLIC "-//W3C//DTD SVG 1.1//EN" "http://www.w3.org/Graphics/SVG/1.1/DTD/svg11.dtd">
<svg width="161pt" height="161pt" viewBox="0 0 161 161" version="1.1" xmlns="http://www.w3.org/2000/svg">
<path fill="#000000" d=" M 73.39 1.30 C 88.92 -0.01 104.86 2.89 118.56 10.45 C 134.97 19.24 148.06 34.01 154.83 51.35 C 160.91 66.49 161.86 83.52 158.20 99.37 C 154.42 114.91 145.88 129.28 133.95 139.94 C 121.57 151.04 105.66 158.34 89.06 159.90 C 69.43 162.11 49.07 156.57 33.25 144.75 C 18.85 134.23 8.34 118.68 3.64 101.51 C -0.78 84.09 0.20 65.02 7.63 48.55 C 18.85 22.46 44.99 3.40 73.39 1.30 Z" />
<path fill="#7a8fa1" d=" M 69.38 13.37 C 72.24 11.58 74.94 9.39 78.17 8.32 C 80.63 8.49 82.75 9.95 84.89 11.05 C 103.89 21.89 123.29 32.03 142.22 42.99 C 124.21 53.20 105.78 62.66 87.74 72.81 C 85.62 73.86 83.54 75.30 81.13 75.50 C 79.17 75.18 77.38 74.26 75.60 73.45 C 56.76 64.30 37.62 55.76 18.83 46.50 C 23.20 42.84 28.10 39.91 32.92 36.90 C 45.07 29.05 57.27 21.28 69.38 13.37 Z" />
<path fill="#000000" d=" M 76.98 23.65 C 79.59 23.70 82.20 23.72 84.81 23.71 C 84.77 35.87 84.47 48.04 84.52 60.21 C 81.90 60.19 79.28 60.32 76.66 60.46 C 76.44 48.19 76.62 35.91 76.98 23.65 Z" />
<path fill="#7a8fa1" d=" M 88.47 88.57 C 108.85 77.64 128.82 65.96 149.22 55.07 C 148.06 72.40 145.94 89.64 144.35 106.93 C 143.95 110.72 144.01 114.60 143.06 118.31 C 141.89 120.08 139.96 121.13 138.27 122.32 C 128.53 128.50 119.04 135.05 109.39 141.37 C 102.73 145.68 96.37 150.45 89.39 154.24 C 88.95 132.35 87.97 110.47 88.47 88.57 Z" />
<path fill="#7a8fa1" d=" M 14.19 59.98 C 35.10 69.19 55.80 78.91 76.57 88.46 C 76.92 110.24 76.59 132.03 76.73 153.81 C 58.94 143.74 41.23 133.56 23.37 123.62 C 21.32 122.42 18.92 120.95 18.90 118.26 C 17.83 109.52 17.56 100.70 16.76 91.94 C 16.05 81.27 14.47 70.67 14.19 59.98 Z" />
<path fill="#000000" d=" M 26.83 112.45 C 36.81 105.50 46.70 98.40 56.98 91.90 C 58.37 93.98 59.81 96.02 61.29 98.04 C 51.47 105.46 41.19 112.26 30.96 119.09 C 29.60 116.86 28.23 114.65 26.83 112.45 Z" />
<path fill="#000000" d=" M 102.20 93.92 C 106.48 95.81 110.60 98.04 114.63 100.42 C 121.22 104.33 128.19 107.60 134.55 111.89 C 133.32 114.03 132.11 116.18 130.93 118.34 C 119.97 112.96 109.45 106.72 98.84 100.70 C 100.01 98.46 101.13 96.20 102.20 93.92 Z" />
</svg>
