<?xml version="1.0" encoding="UTF-8" standalone="no"?>
<!-- Created with Inkscape (http://www.inkscape.org/) -->

<svg
   xmlns:dc="http://purl.org/dc/elements/1.1/"
   xmlns:cc="http://creativecommons.org/ns#"
   xmlns:rdf="http://www.w3.org/1999/02/22-rdf-syntax-ns#"
   xmlns:svg="http://www.w3.org/2000/svg"
   xmlns="http://www.w3.org/2000/svg"
   xmlns:xlink="http://www.w3.org/1999/xlink"
   xmlns:sodipodi="http://sodipodi.sourceforge.net/DTD/sodipodi-0.dtd"
   xmlns:inkscape="http://www.inkscape.org/namespaces/inkscape"
   width="100"
   height="100"
   id="svg3597"
   version="1.1"
   inkscape:version="0.47 r22583"
   sodipodi:docname="Land of Waves Symbol.svg"
   inkscape:export-filename="C:\Documents and Settings\André Kok\Bureaublad\Nieuwe map\Land of Waves Symbol.png"
   inkscape:export-xdpi="90"
   inkscape:export-ydpi="90">
  <defs
     id="defs3599">
    <inkscape:perspective
       sodipodi:type="inkscape:persp3d"
       inkscape:vp_x="0 : 526.18109 : 1"
       inkscape:vp_y="0 : 1000 : 0"
       inkscape:vp_z="744.09448 : 526.18109 : 1"
       inkscape:persp3d-origin="372.04724 : 350.78739 : 1"
       id="perspective3605" />
    <inkscape:perspective
       id="perspective3615"
       inkscape:persp3d-origin="0.5 : 0.33333333 : 1"
       inkscape:vp_z="1 : 0.5 : 1"
       inkscape:vp_y="0 : 1000 : 0"
       inkscape:vp_x="0 : 0.5 : 1"
       sodipodi:type="inkscape:persp3d" />
    <radialGradient
       inkscape:collect="always"
       xlink:href="#linearGradientUnknown"
       id="radialGradient3461"
       gradientUnits="userSpaceOnUse"
       gradientTransform="matrix(1,0,0,0.85945027,0,11.573318)"
       cx="-1021.5062"
       cy="82.343224"
       fx="-1021.5062"
       fy="82.343224"
       r="83.034187" />
    <linearGradient
       id="linearGradientUnknown">
      <stop
         offset="0"
         id="stopUnknown0"
         style="stop-color:#afafaf;stop-opacity:0;" />
      <stop
         style="stop-color:#afafaf;stop-opacity:0.39215687;"
         id="stop6169"
         offset="0.5" />
      <stop
         offset="1"
         id="stopUnknown1"
         style="stop-color:#afafaf;stop-opacity:1;" />
    </linearGradient>
    <inkscape:perspective
       id="perspective3959"
       inkscape:persp3d-origin="0.5 : 0.33333333 : 1"
       inkscape:vp_z="1 : 0.5 : 1"
       inkscape:vp_y="0 : 1000 : 0"
       inkscape:vp_x="0 : 0.5 : 1"
       sodipodi:type="inkscape:persp3d" />
  </defs>
  <sodipodi:namedview
     id="base"
     pagecolor="#ffffff"
     bordercolor="#666666"
     borderopacity="1.0"
     inkscape:pageopacity="0.0"
     inkscape:pageshadow="2"
     inkscape:zoom="16.310616"
     inkscape:cx="67.101904"
     inkscape:cy="42.374322"
     inkscape:document-units="px"
     inkscape:current-layer="layer1"
     showgrid="false"
     inkscape:window-width="1280"
     inkscape:window-height="930"
     inkscape:window-x="-4"
     inkscape:window-y="-4"
     inkscape:window-maximized="1"
     inkscape:snap-object-midpoints="true"
     inkscape:snap-nodes="true"
     inkscape:snap-center="true"
     inkscape:object-paths="false"
     inkscape:object-nodes="true"
     inkscape:snap-smooth-nodes="true" />
  <metadata
     id="metadata3602">
    <rdf:RDF>
      <cc:Work
         rdf:about="">
        <dc:format>image/svg+xml</dc:format>
        <dc:type
           rdf:resource="http://purl.org/dc/dcmitype/StillImage" />
        <dc:title></dc:title>
      </cc:Work>
    </rdf:RDF>
  </metadata>
  <g
     inkscape:label="Layer 1"
     inkscape:groupmode="layer"
     id="layer1"
     transform="translate(-432.85714,-345.21933)">
    <path
       transform="matrix(0.60013489,0,0,0.70318836,1095.8987,337.31653)"
       d="m -941.87268,82.343224 c 0,37.534986 -35.65315,67.963116 -79.63352,67.963116 -43.9804,0 -79.6336,-30.42813 -79.6336,-67.963116 0,-37.534991 35.6532,-67.963112 79.6336,-67.963112 43.98037,0 79.63352,30.428121 79.63352,67.963112 z"
       sodipodi:ry="67.963112"
       sodipodi:rx="79.633545"
       sodipodi:cy="82.343224"
       sodipodi:cx="-1021.5062"
       id="Wave Country Icon"
       style="fill:url(#radialGradient3461);fill-opacity:1;stroke:#000000;stroke-width:6.8012886;stroke-linecap:butt;stroke-linejoin:round;stroke-miterlimit:4;stroke-opacity:1;stroke-dasharray:none;stroke-dashoffset:55.5000029"
       sodipodi:type="arc" />
    <path
       style="fill:#000000;fill-opacity:1;stroke:none"
       d="m 453.09247,381.67016 c 3.45343,2.15802 6.78708,4.82508 9.85469,8.62284 l -4.61939,5.2353 c -2.99724,-3.42929 -6.16251,-6.35449 -9.54673,-8.62285 l 4.31143,-5.23529 z"
       id="path3914"
       sodipodi:nodetypes="ccccc" />
    <path
       style="fill:#000000;fill-opacity:1;stroke:none"
       d="m 452.47656,368.4279 4.61938,-5.2353 c 3.46208,1.89216 6.75801,4.30647 9.54673,8.31491 l -4.92735,5.54323 c -2.80604,-3.58548 -5.95067,-6.29067 -9.23876,-8.62284 z"
       id="path3916"
       sodipodi:nodetypes="ccccc" />
    <path
       style="fill:#000000;fill-opacity:1;stroke:none"
       d="m 458.94369,403.22722 5.54326,3.38755 c -2.27494,5.93892 -4.55625,11.88441 -9.85468,20.94128 0.37735,1.46539 0.66624,2.8239 -1.23184,1.53981 l -5.54326,-5.54334 c 5.20358,-7.54321 7.75946,-11.7694 11.08652,-20.3253 z"
       id="path3918"
       sodipodi:nodetypes="cccccc" />
    <path
       style="fill:#000000;fill-opacity:1;stroke:none"
       d="m 56.26803,15.19849 6.15706,0 c 2.8489,0.54767 1.150901,1.683055 0,2.46908 l 0,26.47227 -3.015929,3.709241 -3.141131,-3.709241 0,-28.94135 z"
       id="path3640"
       transform="translate(432.85714,345.21933)"
       sodipodi:nodetypes="ccccccc" />
    <path
       style="fill:#000000;fill-opacity:1;stroke:none"
       d="m 77.52085,25.35609 0.62508,-1.21891 6.43836,3.68799 c 0.526475,0.754583 0.976408,1.497686 -1.21891,1.844 l -4.93816,10.78268 -5.84453,-3.06291 2.46908,-6.18832 -31.72296,0 0,28.66006 c 0.02836,13.595139 -5.604038,20.957275 -9.21998,24.94081 l -4.31307,-6.15707 c 5.21645,-4.152203 7.336253,-10.083319 7.37598,-18.78374 l 0,-34.50459 40.34911,0 z"
       id="path3642"
       transform="translate(432.85714,345.21933)"
       sodipodi:nodetypes="cccccccccccccc" />
    <path
       style="fill:#000000;fill-opacity:1;stroke:none"
       d="m 49.557522,46.165191 4.241428,3.850429 c 2.665004,10.770733 13.478689,21.508025 30.19151,27.37864 l -2.46908,7.09469 C 63.39276,75.84 52.871002,67.469165 47.64188,50.01562 l 1.915642,-3.850429 z"
       id="path3644"
       transform="translate(432.85714,345.21933)"
       sodipodi:nodetypes="cccccc" />
    <path
       style="fill:#000000;fill-opacity:1;stroke:none"
       d="m 72.58269,42.60839 5.56324,3.37544 c 1.107983,1.240643 -0.03613,1.505377 -0.93762,1.87525 C 69.423791,67.221347 61.795066,74.954269 43.95389,84.17641 L 41.17227,77.39426 C 51.918814,73.227121 62.869311,66.515192 69.51979,50.01562 l 3.0629,-7.40723 z"
       id="path3646"
       transform="translate(432.85714,345.21933)"
       sodipodi:nodetypes="ccccccc" />
    <path
       style="fill:#000000;fill-opacity:1;stroke:none"
       d="m 39.83994,47.332017 3.48887,-3.192177 28.6288,0 2.043275,3.685551 -4.481095,2.190229 -26.19098,0 -3.48887,-2.683603"
       id="path3648"
       transform="translate(432.85714,345.21933)" />
  </g>
</svg>
