<?xml version="1.0" encoding="UTF-8" standalone="no"?>
<!-- Created with Inkscape (http://www.inkscape.org/) -->

<svg
   xmlns:dc="http://purl.org/dc/elements/1.1/"
   xmlns:cc="http://creativecommons.org/ns#"
   xmlns:rdf="http://www.w3.org/1999/02/22-rdf-syntax-ns#"
   xmlns:svg="http://www.w3.org/2000/svg"
   xmlns="http://www.w3.org/2000/svg"
   xmlns:sodipodi="http://sodipodi.sourceforge.net/DTD/sodipodi-0.dtd"
   xmlns:inkscape="http://www.inkscape.org/namespaces/inkscape"
   width="100"
   height="100"
   id="svg2"
   version="1.1"
   inkscape:version="0.47 r22583"
   sodipodi:docname="Land of Frost Symbol.svg">
  <defs
     id="defs4">
    <inkscape:perspective
       sodipodi:type="inkscape:persp3d"
       inkscape:vp_x="0 : 526.18109 : 1"
       inkscape:vp_y="0 : 1000 : 0"
       inkscape:vp_z="744.09448 : 526.18109 : 1"
       inkscape:persp3d-origin="372.04724 : 350.78739 : 1"
       id="perspective10" />
    <inkscape:perspective
       id="perspective2845"
       inkscape:persp3d-origin="0.5 : 0.33333333 : 1"
       inkscape:vp_z="1 : 0.5 : 1"
       inkscape:vp_y="0 : 1000 : 0"
       inkscape:vp_x="0 : 0.5 : 1"
       sodipodi:type="inkscape:persp3d" />
  </defs>
  <sodipodi:namedview
     id="base"
     pagecolor="#ffffff"
     bordercolor="#666666"
     borderopacity="1.0"
     inkscape:pageopacity="0.0"
     inkscape:pageshadow="2"
     inkscape:zoom="2.450125"
     inkscape:cx="-41.161017"
     inkscape:cy="35.310041"
     inkscape:document-units="px"
     inkscape:current-layer="layer1"
     showgrid="false"
     inkscape:snap-center="true"
     inkscape:snap-object-midpoints="true"
     inkscape:snap-grids="false"
     inkscape:snap-to-guides="false"
     inkscape:object-nodes="true"
     inkscape:window-width="1280"
     inkscape:window-height="940"
     inkscape:window-x="-8"
     inkscape:window-y="-8"
     inkscape:window-maximized="1">
    <inkscape:grid
       type="xygrid"
       id="grid3629"
       empspacing="5"
       visible="true"
       enabled="true"
       snapvisiblegridlinesonly="true" />
  </sodipodi:namedview>
  <metadata
     id="metadata7">
    <rdf:RDF>
      <cc:Work
         rdf:about="">
        <dc:format>image/svg+xml</dc:format>
        <dc:type
           rdf:resource="http://purl.org/dc/dcmitype/StillImage" />
        <dc:title />
      </cc:Work>
    </rdf:RDF>
  </metadata>
  <g
     inkscape:label="Layer 1"
     inkscape:groupmode="layer"
     id="layer1"
     transform="translate(1.3559996,-953.71818)">
    <g
       id="g3645"
       transform="matrix(1.5207742,0,0,1.5207742,33.436258,-581.47933)"
       style="stroke:#000000;stroke-width:3.75598168;stroke-miterlimit:4;stroke-opacity:1;stroke-dasharray:none">
      <path
         transform="matrix(0.89250001,0,0,0.95008069,-107.45455,513.30571)"
         d="m 141.12554,556.85425 c 0,4.94107 -4.26395,8.94661 -9.52381,8.94661 -5.25985,0 -9.52381,-4.00554 -9.52381,-8.94661 0,-4.94108 4.26396,-8.94661 9.52381,-8.94661 5.25986,0 9.52381,4.00553 9.52381,8.94661 z"
         sodipodi:ry="8.9466085"
         sodipodi:rx="9.5238094"
         sodipodi:cy="556.85425"
         sodipodi:cx="131.60173"
         id="path2851"
         style="fill:none;stroke:#000000;stroke-width:4.07886267;stroke-miterlimit:4;stroke-opacity:1;stroke-dasharray:none"
         sodipodi:type="arc" />
      <path
         sodipodi:type="arc"
         style="fill:none;stroke:#000000;stroke-width:5.77838898;stroke-miterlimit:4;stroke-opacity:1;stroke-dasharray:none"
         id="path3625"
         sodipodi:cx="131.60173"
         sodipodi:cy="556.85425"
         sodipodi:rx="9.5238094"
         sodipodi:ry="8.9466085"
         d="m 141.12554,556.85425 c 0,4.94107 -4.26395,8.94661 -9.52381,8.94661 -5.25985,0 -9.52381,-4.00554 -9.52381,-8.94661 0,-4.94108 4.26396,-8.94661 9.52381,-8.94661 5.25986,0 9.52381,4.00553 9.52381,8.94661 z"
         transform="matrix(0.63000001,0,0,0.67064519,-72.909091,643.91056)" />
      <path
         transform="matrix(0.63000001,0,0,0.67064519,-97.909091,668.91056)"
         d="m 141.12554,556.85425 c 0,4.94107 -4.26395,8.94661 -9.52381,8.94661 -5.25985,0 -9.52381,-4.00554 -9.52381,-8.94661 0,-4.94108 4.26396,-8.94661 9.52381,-8.94661 5.25986,0 9.52381,4.00553 9.52381,8.94661 z"
         sodipodi:ry="8.9466085"
         sodipodi:rx="9.5238094"
         sodipodi:cy="556.85425"
         sodipodi:cx="131.60173"
         id="path3639"
         style="fill:none;stroke:#000000;stroke-width:5.77838898;stroke-miterlimit:4;stroke-opacity:1;stroke-dasharray:none"
         sodipodi:type="arc" />
      <path
         sodipodi:type="arc"
         style="fill:none;stroke:#000000;stroke-width:5.77838898;stroke-miterlimit:4;stroke-opacity:1;stroke-dasharray:none"
         id="path3641"
         sodipodi:cx="131.60173"
         sodipodi:cy="556.85425"
         sodipodi:rx="9.5238094"
         sodipodi:ry="8.9466085"
         d="m 141.12554,556.85425 c 0,4.94107 -4.26395,8.94661 -9.52381,8.94661 -5.25985,0 -9.52381,-4.00554 -9.52381,-8.94661 0,-4.94108 4.26396,-8.94661 9.52381,-8.94661 5.25986,0 9.52381,4.00553 9.52381,8.94661 z"
         transform="matrix(0.63000001,0,0,0.67064519,-47.909091,668.91056)" />
      <path
         transform="matrix(0.63000001,0,0,0.67064519,-72.909091,693.91056)"
         d="m 141.12554,556.85425 c 0,4.94107 -4.26395,8.94661 -9.52381,8.94661 -5.25985,0 -9.52381,-4.00554 -9.52381,-8.94661 0,-4.94108 4.26396,-8.94661 9.52381,-8.94661 5.25986,0 9.52381,4.00553 9.52381,8.94661 z"
         sodipodi:ry="8.9466085"
         sodipodi:rx="9.5238094"
         sodipodi:cy="556.85425"
         sodipodi:cx="131.60173"
         id="path3643"
         style="fill:none;stroke:#000000;stroke-width:5.77838898;stroke-miterlimit:4;stroke-opacity:1;stroke-dasharray:none"
         sodipodi:type="arc" />
    </g>
  </g>
</svg>
