<?xml version="1.0" encoding="UTF-8" standalone="no"?>
<!-- Created with Inkscape (http://www.inkscape.org/) -->

<svg
   xmlns:dc="http://purl.org/dc/elements/1.1/"
   xmlns:cc="http://creativecommons.org/ns#"
   xmlns:rdf="http://www.w3.org/1999/02/22-rdf-syntax-ns#"
   xmlns:svg="http://www.w3.org/2000/svg"
   xmlns="http://www.w3.org/2000/svg"
   xmlns:xlink="http://www.w3.org/1999/xlink"
   xmlns:sodipodi="http://sodipodi.sourceforge.net/DTD/sodipodi-0.dtd"
   xmlns:inkscape="http://www.inkscape.org/namespaces/inkscape"
   width="100"
   height="100"
   id="svg3369"
   version="1.1"
   inkscape:version="0.47 r22583"
   sodipodi:docname="New document 14">
  <defs
     id="defs3371">
    <inkscape:perspective
       sodipodi:type="inkscape:persp3d"
       inkscape:vp_x="0 : 526.18109 : 1"
       inkscape:vp_y="0 : 1000 : 0"
       inkscape:vp_z="744.09448 : 526.18109 : 1"
       inkscape:persp3d-origin="372.04724 : 350.78739 : 1"
       id="perspective3377" />
    <inkscape:perspective
       id="perspective3599"
       inkscape:persp3d-origin="0.5 : 0.33333333 : 1"
       inkscape:vp_z="1 : 0.5 : 1"
       inkscape:vp_y="0 : 1000 : 0"
       inkscape:vp_x="0 : 0.5 : 1"
       sodipodi:type="inkscape:persp3d" />
    <radialGradient
       r="83.034187"
       fy="82.343224"
       fx="-1021.5062"
       cy="82.343224"
       cx="-1021.5062"
       gradientTransform="matrix(1,0,0,0.85945027,0,11.573318)"
       gradientUnits="userSpaceOnUse"
       id="radialGradient3514"
       xlink:href="#linearGradientUnknown"
       inkscape:collect="always" />
    <linearGradient
       id="linearGradientUnknown">
      <stop
         style="stop-color:#afafaf;stop-opacity:0;"
         id="stopUnknown0"
         offset="0" />
      <stop
         offset="0.5"
         id="stop6169"
         style="stop-color:#afafaf;stop-opacity:0.39215687;" />
      <stop
         style="stop-color:#afafaf;stop-opacity:1;"
         id="stopUnknown1"
         offset="1" />
    </linearGradient>
  </defs>
  <sodipodi:namedview
     id="base"
     pagecolor="#ffffff"
     bordercolor="#666666"
     borderopacity="1.0"
     inkscape:pageopacity="0.0"
     inkscape:pageshadow="2"
     inkscape:zoom="0.35"
     inkscape:cx="-106.42857"
     inkscape:cy="72.857144"
     inkscape:document-units="px"
     inkscape:current-layer="layer1"
     showgrid="false"
     inkscape:window-width="566"
     inkscape:window-height="488"
     inkscape:window-x="66"
     inkscape:window-y="66"
     inkscape:window-maximized="0" />
  <metadata
     id="metadata3374">
    <rdf:RDF>
      <cc:Work
         rdf:about="">
        <dc:format>image/svg+xml</dc:format>
        <dc:type
           rdf:resource="http://purl.org/dc/dcmitype/StillImage" />
        <dc:title></dc:title>
      </cc:Work>
    </rdf:RDF>
  </metadata>
  <g
     inkscape:label="Layer 1"
     inkscape:groupmode="layer"
     id="layer1"
     transform="translate(-481.42857,-505.21933)">
    <g
       id="Valley Country"
       transform="translate(281.42857,-947.14287)">
      <path
         transform="matrix(0.60013489,0,0,0.70318836,863.04153,1444.4594)"
         d="m -941.87268,82.343224 c 0,37.534986 -35.65315,67.963116 -79.63352,67.963116 -43.9804,0 -79.6336,-30.42813 -79.6336,-67.963116 0,-37.534991 35.6532,-67.963112 79.6336,-67.963112 43.98037,0 79.63352,30.428121 79.63352,67.963112 z"
         sodipodi:ry="67.963112"
         sodipodi:rx="79.633545"
         sodipodi:cy="82.343224"
         sodipodi:cx="-1021.5062"
         id="Valley Country Icon"
         style="fill:url(#radialGradient3514);fill-opacity:1;stroke:#000000;stroke-width:6.8012886;stroke-linecap:butt;stroke-linejoin:round;stroke-miterlimit:4;stroke-opacity:1;stroke-dasharray:none;stroke-dashoffset:55.5000029"
         sodipodi:type="arc" />
      <path
         d="m 261.875,1468.2997 c 5.83327,6.8751 12.49993,11.9792 20,15.3125 l -3.4375,5.9375 c -6.87507,-2.4999 -13.85423,-8.3333 -20.9375,-17.5 z m -42.5,17.8125 c 7.49998,-5.4166 13.54164,-11.3541 18.125,-17.8125 l 5,3.75 c 1.24996,1.0417 0.8333,1.7709 -1.25,2.1875 -4.37503,6.4584 -10.10419,12.1876 -17.1875,17.1875 z m -4.375,23.125 c 15.62498,-6.4583 26.66663,-16.8749 33.125,-31.25 l 5.9375,1.875 c 1.45828,0.4167 1.14578,1.2501 -0.9375,2.5 7.91661,11.6667 18.5416,20.1042 31.875,25.3125 l -4.0625,6.5625 c -3.9584,-1.875 -7.3959,-3.8541 -10.3125,-5.9375 l 0,27.5 -6.25,0 0,-2.8125 -27.1875,0 0,3.4375 -6.25,0 0,-27.8125 c -3.33335,2.5 -7.39585,4.7917 -12.1875,6.875 z m 35,-22.1875 c -3.95837,7.7084 -10.00003,14.5834 -18.125,20.625 l 37.8125,0 c -8.75005,-5.8333 -15.31255,-12.7083 -19.6875,-20.625 z m -12.8125,40 27.1875,0 0,-13.4375 -27.1875,0 z"
         id="Valley Country Kanji"
         style="font-size:80px;font-style:normal;font-variant:normal;font-weight:normal;font-stretch:normal;text-align:center;text-anchor:middle;fill:#000000;fill-opacity:1;stroke:none;font-family:MS PGothic;-inkscape-font-specification:MS PGothic" />
    </g>
  </g>
</svg>
