<?xml version="1.0" encoding="UTF-8" standalone="no"?>
<!-- Created with Inkscape (http://www.inkscape.org/) -->

<svg
   xmlns:dc="http://purl.org/dc/elements/1.1/"
   xmlns:cc="http://creativecommons.org/ns#"
   xmlns:rdf="http://www.w3.org/1999/02/22-rdf-syntax-ns#"
   xmlns:svg="http://www.w3.org/2000/svg"
   xmlns="http://www.w3.org/2000/svg"
   xmlns:xlink="http://www.w3.org/1999/xlink"
   xmlns:sodipodi="http://sodipodi.sourceforge.net/DTD/sodipodi-0.dtd"
   xmlns:inkscape="http://www.inkscape.org/namespaces/inkscape"
   width="100"
   height="100"
   id="svg3389"
   version="1.1"
   inkscape:version="0.47 r22583"
   sodipodi:docname="New document 16">
  <defs
     id="defs3391">
    <inkscape:perspective
       sodipodi:type="inkscape:persp3d"
       inkscape:vp_x="0 : 526.18109 : 1"
       inkscape:vp_y="0 : 1000 : 0"
       inkscape:vp_z="744.09448 : 526.18109 : 1"
       inkscape:persp3d-origin="372.04724 : 350.78739 : 1"
       id="perspective3397" />
    <inkscape:perspective
       id="perspective3513"
       inkscape:persp3d-origin="0.5 : 0.33333333 : 1"
       inkscape:vp_z="1 : 0.5 : 1"
       inkscape:vp_y="0 : 1000 : 0"
       inkscape:vp_x="0 : 0.5 : 1"
       sodipodi:type="inkscape:persp3d" />
    <radialGradient
       r="83.034187"
       fy="82.343224"
       fx="-1021.5062"
       cy="82.343224"
       cx="-1021.5062"
       gradientTransform="matrix(1,0,0,0.85945027,0,11.573318)"
       gradientUnits="userSpaceOnUse"
       id="radialGradient3494"
       xlink:href="#linearGradientUnknown"
       inkscape:collect="always" />
    <linearGradient
       id="linearGradientUnknown">
      <stop
         style="stop-color:#afafaf;stop-opacity:0;"
         id="stopUnknown0"
         offset="0" />
      <stop
         offset="0.5"
         id="stop6169"
         style="stop-color:#afafaf;stop-opacity:0.39215687;" />
      <stop
         style="stop-color:#afafaf;stop-opacity:1;"
         id="stopUnknown1"
         offset="1" />
    </linearGradient>
  </defs>
  <sodipodi:namedview
     id="base"
     pagecolor="#ffffff"
     bordercolor="#666666"
     borderopacity="1.0"
     inkscape:pageopacity="0.0"
     inkscape:pageshadow="2"
     inkscape:zoom="0.35"
     inkscape:cx="182.14286"
     inkscape:cy="272.85714"
     inkscape:document-units="px"
     inkscape:current-layer="layer1"
     showgrid="false"
     inkscape:window-width="566"
     inkscape:window-height="488"
     inkscape:window-x="110"
     inkscape:window-y="110"
     inkscape:window-maximized="0" />
  <metadata
     id="metadata3394">
    <rdf:RDF>
      <cc:Work
         rdf:about="">
        <dc:format>image/svg+xml</dc:format>
        <dc:type
           rdf:resource="http://purl.org/dc/dcmitype/StillImage" />
        <dc:title></dc:title>
      </cc:Work>
    </rdf:RDF>
  </metadata>
  <g
     inkscape:label="Layer 1"
     inkscape:groupmode="layer"
     id="layer1"
     transform="translate(-192.85714,-705.21933)">
    <g
       id="Honey Country"
       transform="translate(192.85714,-747.14287)">
      <path
         transform="matrix(0.60013489,0,0,0.70318836,663.04153,1444.4594)"
         d="m -941.87268,82.343224 c 0,37.534986 -35.65315,67.963116 -79.63352,67.963116 -43.9804,0 -79.6336,-30.42813 -79.6336,-67.963116 0,-37.534991 35.6532,-67.963112 79.6336,-67.963112 43.98037,0 79.63352,30.428121 79.63352,67.963112 z"
         sodipodi:ry="67.963112"
         sodipodi:rx="79.633545"
         sodipodi:cy="82.343224"
         sodipodi:cx="-1021.5062"
         id="Honey Country Icon"
         style="fill:url(#radialGradient3494);fill-opacity:1;stroke:#000000;stroke-width:6.8012886;stroke-linecap:butt;stroke-linejoin:round;stroke-miterlimit:4;stroke-opacity:1;stroke-dasharray:none;stroke-dashoffset:55.5000029"
         sodipodi:type="arc" />
      <path
         d="m 41.13734,1504.315 c -1.8026,0 -2.90417,-0.701 -3.30472,-2.103 -7.81118,3.0043 -14.22033,5.0071 -19.22747,6.0086 l -1.80257,-5.4078 c 6.00857,-1.0014 12.81829,-3.0042 20.42918,-6.0086 l 0,-12.3176 4.80687,0 c 1.60226,0.2004 1.7024,0.8012 0.30043,1.8026 l 0,8.412 c 9.61369,-4.2059 17.3247,-8.6122 23.13305,-13.2188 l 3.90558,3.9055 c 0.40051,1.0015 -0.30049,1.4021 -2.10301,1.2017 -6.00863,4.2061 -14.02007,8.5122 -24.03433,12.9185 l 18.02575,0 c 0.80109,0 1.40195,-0.701 1.80257,-2.103 l 0.60086,-2.7039 5.40773,0.9013 -1.20172,4.5065 c -0.8012,2.804 -2.40349,4.206 -4.80687,4.206 l -9.91416,0 0,4.206 21.6309,0 0,15.0214 -5.40772,0 c 5.20737,3.2046 9.41338,6.3091 12.61802,9.3133 l -4.206,4.2061 c -1.80264,-1.8026 -3.50507,-3.2046 -5.1073,-4.2061 l -49.57082,2.7039 c -0.2003,1.402 -0.70101,1.7024 -1.50214,0.9013 l -1.20172,-6.6094 26.7382,-0.6009 0,-5.7082 -15.02146,0 0,2.4035 -6.00859,0 0,-17.4249 21.03005,0 0,-4.206 -6.00859,0 z m 37.55365,-3.6052 c -2.00292,-3.0042 -5.30764,-6.309 -9.91416,-9.9141 l 3.60515,-4.5065 c 4.20594,2.8041 7.81109,5.9085 10.81545,9.3133 z m -30.9442,-21.9313 c 2.2031,1.402 4.20596,3.4049 6.00858,6.0086 l -4.50644,3.6051 c -1.40204,-2.0028 -3.20461,-4.1058 -5.40772,-6.309 z m -13.81975,9.3133 c 0.40055,0.8012 -2e-5,1.2018 -1.20171,1.2017 -3.00431,3.4049 -6.30903,6.7096 -9.91417,9.9142 l -3.60515,-4.5065 c 4.00571,-3.2045 7.21029,-6.7095 9.61374,-10.515 z m 47.46782,-2.4034 -5.1073,0 0,-7.5108 -52.27468,0 0,8.412 -5.1073,0 0,-13.2188 27.93992,0 0,-5.7082 5.70815,0 c 1.60225,0.2004 1.70239,0.8012 0.30043,1.8026 l 0,3.9056 28.54078,0 z m -28.24035,37.854 0,5.7082 15.02146,-0.3004 -5.1073,-3.9056 2.10301,-1.5022 z m 15.62232,-4.8068 0,-5.4078 -15.62232,0 0,5.4078 z m -21.6309,0 0,-5.4078 -15.02146,0 0,5.4078 z"
         id="Honey Country Kanji"
         style="font-size:76.90987396px;font-style:normal;font-variant:normal;font-weight:normal;font-stretch:normal;text-align:center;text-anchor:middle;fill:#000000;fill-opacity:1;stroke:none;font-family:MS PGothic;-inkscape-font-specification:MS PGothic" />
    </g>
  </g>
</svg>
