<?xml version="1.0" encoding="UTF-8" standalone="no"?>
<!-- Created with Inkscape (http://www.inkscape.org/) -->

<svg
   xmlns:dc="http://purl.org/dc/elements/1.1/"
   xmlns:cc="http://creativecommons.org/ns#"
   xmlns:rdf="http://www.w3.org/1999/02/22-rdf-syntax-ns#"
   xmlns:svg="http://www.w3.org/2000/svg"
   xmlns="http://www.w3.org/2000/svg"
   xmlns:xlink="http://www.w3.org/1999/xlink"
   xmlns:sodipodi="http://sodipodi.sourceforge.net/DTD/sodipodi-0.dtd"
   xmlns:inkscape="http://www.inkscape.org/namespaces/inkscape"
   width="100"
   height="100"
   id="svg3223"
   version="1.1"
   inkscape:version="0.47 r22583"
   sodipodi:docname="New document 6">
  <defs
     id="defs3225">
    <inkscape:perspective
       sodipodi:type="inkscape:persp3d"
       inkscape:vp_x="0 : 526.18109 : 1"
       inkscape:vp_y="0 : 1000 : 0"
       inkscape:vp_z="744.09448 : 526.18109 : 1"
       inkscape:persp3d-origin="372.04724 : 350.78739 : 1"
       id="perspective3231" />
    <inkscape:perspective
       id="perspective3241"
       inkscape:persp3d-origin="0.5 : 0.33333333 : 1"
       inkscape:vp_z="1 : 0.5 : 1"
       inkscape:vp_y="0 : 1000 : 0"
       inkscape:vp_x="0 : 0.5 : 1"
       sodipodi:type="inkscape:persp3d" />
    <radialGradient
       r="83.034187"
       fy="82.343224"
       fx="-1021.5062"
       cy="82.343224"
       cx="-1021.5062"
       gradientTransform="matrix(1,0,0,0.85945027,0,11.573318)"
       gradientUnits="userSpaceOnUse"
       id="radialGradient3490"
       xlink:href="#linearGradientUnknown"
       inkscape:collect="always" />
    <linearGradient
       id="linearGradientUnknown">
      <stop
         style="stop-color:#afafaf;stop-opacity:0;"
         id="stopUnknown0"
         offset="0" />
      <stop
         offset="0.5"
         id="stop6169"
         style="stop-color:#afafaf;stop-opacity:0.39215687;" />
      <stop
         style="stop-color:#afafaf;stop-opacity:1;"
         id="stopUnknown1"
         offset="1" />
    </linearGradient>
  </defs>
  <sodipodi:namedview
     id="base"
     pagecolor="#ffffff"
     bordercolor="#666666"
     borderopacity="1.0"
     inkscape:pageopacity="0.0"
     inkscape:pageshadow="2"
     inkscape:zoom="0.35"
     inkscape:cx="-26.428574"
     inkscape:cy="1.428574"
     inkscape:document-units="px"
     inkscape:current-layer="layer1"
     showgrid="false"
     inkscape:window-width="566"
     inkscape:window-height="488"
     inkscape:window-x="66"
     inkscape:window-y="66"
     inkscape:window-maximized="0" />
  <metadata
     id="metadata3228">
    <rdf:RDF>
      <cc:Work
         rdf:about="">
        <dc:format>image/svg+xml</dc:format>
        <dc:type
           rdf:resource="http://purl.org/dc/dcmitype/StillImage" />
        <dc:title></dc:title>
      </cc:Work>
    </rdf:RDF>
  </metadata>
  <g
     inkscape:label="Layer 1"
     inkscape:groupmode="layer"
     id="layer1"
     transform="translate(-401.42857,-433.79076)">
    <g
       id="Bird Country"
       transform="translate(101.4286,-818.57144)">
      <path
         sodipodi:type="arc"
         style="fill:url(#radialGradient3490);fill-opacity:1;stroke:#000000;stroke-width:6.8012886;stroke-linecap:butt;stroke-linejoin:round;stroke-miterlimit:4;stroke-opacity:1;stroke-dasharray:none;stroke-dashoffset:55.5000029"
         id="Bird Country Icon"
         sodipodi:cx="-1021.5062"
         sodipodi:cy="82.343224"
         sodipodi:rx="79.633545"
         sodipodi:ry="67.963112"
         d="m -941.87268,82.343224 c 0,37.534986 -35.65315,67.963116 -79.63352,67.963116 -43.9804,0 -79.6336,-30.42813 -79.6336,-67.963116 0,-37.534991 35.6532,-67.963112 79.6336,-67.963112 43.98037,0 79.63352,30.428121 79.63352,67.963112 z"
         transform="matrix(0.60013489,0,0,0.70318836,963.0415,1244.4594)" />
      <path
         d="m 334.69693,1334.0288 c 0.60604,-4.2424 0.60604,-8.5858 0,-13.0303 l 5.45455,-0.303 c 1.01007,4.6465 1.3131,9.0909 0.90909,13.3333 z m 30,-40.606 0,-4.5455 -32.42424,0 0,4.5455 z m -32.42424,-14.2425 0,4.8485 32.42424,0 0,-4.8485 z m 29.39394,58.1819 -0.60606,-5.7576 9.09091,0 c 1.6161,0 2.52519,-1.1111 2.72727,-3.3333 l 1.21212,-11.8182 -47.87879,0 0,-42.1212 16.06061,0 1.51515,-6.9697 6.36364,0.9091 c 1.61612,0.6061 1.51511,1.2121 -0.30303,1.8181 l -1.21212,4.2425 22.12121,0 0,23.9394 -38.48485,0 0,4.2424 50.30303,0 0,4.8485 -50.30303,0 0,4.2424 48.48485,0 -2.12121,17.8788 c -0.60613,5.2525 -2.72734,7.8788 -6.36364,7.8788 z m 1.81818,-19.697 c 2.62621,3.6364 4.44439,6.8687 5.45455,9.697 l -5.75758,2.1212 c -1.41419,-3.8384 -3.03035,-7.0707 -4.84848,-9.697 z m -12.12121,2.1212 c 1.61612,2.4243 3.03026,6.3636 4.24242,11.8182 l -6.36363,1.5151 c -1.21216,-6.0606 -2.12125,-10.101 -2.72728,-12.1212 z m -33.9394,12.7273 c 2.22222,-4.4445 4.0404,-8.8889 5.45455,-13.3334 l 5.75757,1.5152 c -0.80809,4.8485 -2.62627,9.798 -5.45454,14.8485 z"
         id="Bird Country Kanji"
         style="font-size:77.57575989px;font-style:normal;font-variant:normal;font-weight:normal;font-stretch:normal;text-align:center;text-anchor:middle;fill:#000000;fill-opacity:1;stroke:none;font-family:MS PGothic;-inkscape-font-specification:MS PGothic" />
    </g>
  </g>
</svg>
