<?xml version="1.0" encoding="UTF-8" standalone="no"?>
<!-- Created with Inkscape (http://www.inkscape.org/) -->
<svg xmlns:dc="http://purl.org/dc/elements/1.1/" xmlns:cc="http://creativecommons.org/ns#" xmlns:rdf="http://www.w3.org/1999/02/22-rdf-syntax-ns#" xmlns:svg="http://www.w3.org/2000/svg" xmlns="http://www.w3.org/2000/svg" xmlns:xlink="http://www.w3.org/1999/xlink" xmlns:sodipodi="http://sodipodi.sourceforge.net/DTD/sodipodi-0.dtd" xmlns:inkscape="http://www.inkscape.org/namespaces/inkscape" width="300" height="300.00021" id="svg2" sodipodi:version="0.32" inkscape:version="0.48.2 r9819" sodipodi:docname="Land_of_Rain_Symbol.svg" inkscape:output_extension="org.inkscape.output.svg.inkscape" version="1.0">
  <metadata id="metadata20">
    <rdf:RDF>
      <cc:Work rdf:about="">
        <dc:format>image/svg+xml</dc:format>
        <dc:type rdf:resource="http://purl.org/dc/dcmitype/StillImage"/>
        <dc:title/>
      </cc:Work>
    </rdf:RDF>
  </metadata>
  <defs id="defs4">
    <linearGradient id="linearGradient5412">
      <stop style="stop-color:#c795cc;stop-opacity:1;" offset="0" id="stop5414"/>
      <stop style="stop-color:#b16ab8;stop-opacity:1;" offset="1" id="stop5416"/>
    </linearGradient>
    <linearGradient id="linearGradient3901">
      <stop style="stop-color:#660000;stop-opacity:1;" offset="0" id="stop3903"/>
      <stop id="stop3905" offset="1" style="stop-color:#c30000;stop-opacity:1;"/>
    </linearGradient>
    <inkscape:perspective sodipodi:type="inkscape:persp3d" inkscape:vp_x="0 : 150.00011 : 1" inkscape:vp_y="0 : 1000 : 0" inkscape:vp_z="300.00021 : 150.00011 : 1" inkscape:persp3d-origin="150.00011 : 100.00007 : 1" id="perspective22"/>
    <linearGradient id="linearGradientSharingan">
      <stop id="stop3451" offset="0" style="stop-color:#660000;stop-opacity:1;"/>
      <stop style="stop-color:#c30000;stop-opacity:1;" offset="0.5" id="stop3455"/>
      <stop style="stop-color:#a00000;stop-opacity:1;" offset="1" id="stop3453"/>
    </linearGradient>
    <radialGradient inkscape:collect="always" xlink:href="#linearGradientSharingan" id="radialGradient3893" gradientUnits="userSpaceOnUse" cx="297.5" cy="439.86218" fx="297.5" fy="439.86218" r="12.5"/>
    <radialGradient inkscape:collect="always" xlink:href="#linearGradient5412" id="radialGradient5418" cx="172.41309" cy="128.5896" fx="172.41309" fy="128.5896" r="37.423672" gradientTransform="matrix(1,0,0,1.0463872,0,-5.9649171)" gradientUnits="userSpaceOnUse"/>
  </defs>
  <sodipodi:namedview id="base" pagecolor="#ffffff" bordercolor="#666666" borderopacity="1.0" gridtolerance="10000" guidetolerance="10" objecttolerance="50" inkscape:pageopacity="0.0" inkscape:pageshadow="2" inkscape:zoom="1.01" inkscape:cx="-33.504706" inkscape:cy="205.16286" inkscape:document-units="px" inkscape:current-layer="layer1" showgrid="false" inkscape:object-paths="false" inkscape:object-nodes="true" inkscape:snap-center="true" inkscape:snap-global="true" inkscape:window-width="1281" inkscape:window-height="810" inkscape:window-x="22" inkscape:window-y="87" inkscape:window-maximized="0"/>
  <g inkscape:groupmode="layer" id="layer2" inkscape:label="Layer" style="display:inline">
    <path sodipodi:type="arc" style="fill:#000000;fill-opacity:1;stroke:none" id="path3030" sodipodi:cx="206.24605" sodipodi:cy="147.18802" sodipodi:rx="119.22227" sodipodi:ry="89.265404" d="m 325.46832,147.18802 a 119.22227,89.265404 0 1 1 -238.444539,0 119.22227,89.265404 0 1 1 238.444539,0 z" transform="matrix(1.2581542,0,0,1.6803823,-109.48933,-97.331921)"/>
  </g>
  <g inkscape:groupmode="layer" id="layer3" inkscape:label="Red" style="display:inline">
    <path sodipodi:type="arc" style="fill:url(#radialGradient5418);fill-opacity:1;stroke:#000000;stroke-opacity:1" id="path3033" sodipodi:cx="172.41309" sodipodi:cy="128.5896" sodipodi:rx="36.923672" sodipodi:ry="38.659653" d="m 209.33676,128.5896 a 36.923672,38.659653 0 1 1 -73.84735,0 36.923672,38.659653 0 1 1 73.84735,0 z" transform="matrix(3.7916056,0,0,3.6213466,-503.72242,-315.6673)"/>
  </g>
  <g inkscape:groupmode="layer" id="layer1" inkscape:label="Symbol">
    <g style="font-size:144px;font-style:normal;font-variant:normal;font-weight:bold;font-stretch:normal;line-height:125%;letter-spacing:0px;word-spacing:0px;fill:#000000;fill-opacity:1;stroke:none;font-family:MingLiU_HKSCS;-inkscape-font-specification:MingLiU_HKSCS Bold" id="text5423">
      <path d="m 134.06327,45.132202 c 4.52016,1.899996 8.02032,3.867666 10.50049,5.903015 2.9198,1.848518 5.28522,3.603277 7.09625,5.264283 1.94181,1.778321 3.36668,3.39036 4.27459,4.83612 0.77198,1.750241 1.15802,3.329524 1.15815,4.737854 -1.3e-4,3.116608 -0.54293,5.751087 -1.62842,7.903443 -0.85176,1.483504 -1.40861,1.036626 -1.67053,-1.340638 l 54.23614,0 11.32874,-12.550049 c 7.0516,4.511063 13.15583,8.825431 18.31268,12.943116 2.07275,1.151271 3.10923,2.578475 3.10944,4.281616 -2.1e-4,3.846577 -1.92577,5.769793 -5.77668,5.769653 l -39.36981,0 c 4.28145,-0.80003 8.6122,-0.14726 12.99225,1.958313 1.46914,1.703424 2.2038,3.238253 2.20398,4.604492 -1.8e-4,2.737557 -2.08951,4.438504 -6.26801,5.102845 -3.34123,0.589726 -5.24806,0.884526 -5.72052,0.884399 -1.82511,4.365967 -4.12267,9.087436 -6.8927,14.164426 -2.33983,4.81985 -4.94857,9.03128 -7.82623,12.63428 -2.3679,3.15399 -4.84328,5.05615 -7.42615,5.70648 l 45.65888,0 12.26929,-13.43445 c 7.06563,4.83389 13.17453,9.38456 18.32672,13.65204 2.01658,1.1091 3.02498,2.66499 3.0252,4.66767 -2.2e-4,3.70146 -1.9983,5.55214 -5.99426,5.55206 l -177.939757,0 c -10.196356,0.14046 -17.854125,0.43526 -22.973328,0.8844 l -5.046691,-14.18549 c 8.193545,1.90928 17.533543,2.86387 28.020019,2.86377 l 41.349187,0 c 0.0607,2.43804 -0.0469,3.37625 -0.32288,2.81464 -0.89852,-1.07148 -1.67061,-3.71298 -2.31628,-7.9245 -0.7207,-4.89451 -1.87182,-9.57387 -3.45337,-14.03809 -1.67997,-4.33765 -3.50725,-8.6333 -5.48188,-12.88696 -1.69867,-4.113029 -4.300393,-9.045071 -7.805172,-14.796143 l 1.101989,1.775818 -11.623535,0 c -10.201047,0.14052 -17.758209,0.43298 -22.671509,0.877381 L 55.253452,69.579529 c 8.329236,1.904651 17.741763,2.8569 28.23761,2.85675 l 60.511168,0 c -0.58503,1.956121 -1.15825,1.628566 -1.71966,-0.982666 -0.54292,-2.302093 -1.49283,-4.536486 -2.84974,-6.703186 -1.14654,-2.442467 -2.46378,-4.609009 -3.95172,-6.499634 -1.55364,-1.979204 -3.85121,-4.868707 -6.8927,-8.668518 z m -10.88654,82.803648 43.46893,0 c 2.48929,-3.91185 4.89448,-8.04606 7.21558,-12.40265 1.76398,-3.5328 3.41111,-7.19674 4.94141,-10.99182 1.78269,-5.236081 3.35495,-9.824191 4.71679,-13.764341 0.82342,-3.144397 1.4528,-5.776536 1.88813,-7.896424 l -81.16822,0 c 2.71396,1.399267 5.38587,3.92612 8.01575,7.580567 3.37842,4.146042 6.21177,8.355124 8.50006,12.627258 2.12902,3.52368 3.57728,6.81794 4.34479,9.88281 0.77668,2.65331 1.16507,5.4539 1.16516,8.4018 -9e-5,3.13995 -0.53822,5.69254 -1.61438,7.65777 -0.77218,1.55832 -1.26352,1.19333 -1.474,-1.09497 z m -37.088622,21.14136 16.705322,9.68628 93.01636,0 7.64374,-9.68628 c 6.87848,3.4628 11.51573,6.76876 13.91174,9.91791 1.51593,1.51149 2.27398,2.99251 2.27417,4.44305 -1.9e-4,2.23679 -2.64402,5.04441 -7.93152,8.42285 l 0,42.88636 c -1.8e-4,10.85611 0.20572,17.85409 0.61768,20.99395 0.17763,5.16132 0.26654,8.66148 0.26672,10.50049 -1.8e-4,2.66721 -1.09515,4.98583 -3.28491,6.95587 -2.4194,1.11366 -4.42451,1.6705 -6.01532,1.67054 -4.731,-4e-5 -7.09642,-1.70098 -7.09625,-5.10285 l 0,-7.4472 -93.49366,0 0,7.4472 c -6e-5,3.40187 -2.36548,5.10281 -7.09625,5.10285 -1.614438,-4e-5 -3.617203,-0.54986 -6.0083,-1.64948 -2.339733,-1.91389 -3.509573,-4.23953 -3.509522,-6.97693 -5.1e-5,-2.63918 0.222219,-6.11594 0.666809,-10.4303 0.874988,-3.35511 1.312508,-10.37648 1.312561,-21.06414 l 0,-48.67005 c -5.3e-5,-5.29697 -0.659842,-10.96368 -1.97937,-17.00012 z m 16.614072,82.80365 93.49366,0 0,-26.56006 -93.49366,0 z m 0,-36.99738 93.49366,0 0,-25.45806 -93.49366,0 z" style="font-size:230px;font-family:MingLiU_HKSCS;-inkscape-font-specification:MingLiU_HKSCS Bold" id="path5431"/>
    </g>
  </g>
</svg>