<?xml version="1.0" encoding="UTF-8" standalone="no"?>
<!-- Created with Inkscape (http://www.inkscape.org/) -->

<svg
   xmlns:dc="http://purl.org/dc/elements/1.1/"
   xmlns:cc="http://creativecommons.org/ns#"
   xmlns:rdf="http://www.w3.org/1999/02/22-rdf-syntax-ns#"
   xmlns:svg="http://www.w3.org/2000/svg"
   xmlns="http://www.w3.org/2000/svg"
   xmlns:xlink="http://www.w3.org/1999/xlink"
   xmlns:sodipodi="http://sodipodi.sourceforge.net/DTD/sodipodi-0.dtd"
   xmlns:inkscape="http://www.inkscape.org/namespaces/inkscape"
   width="100"
   height="100"
   id="svg3170"
   version="1.1"
   inkscape:version="0.47 r22583"
   sodipodi:docname="New document 4">
  <defs
     id="defs3172">
    <inkscape:perspective
       sodipodi:type="inkscape:persp3d"
       inkscape:vp_x="0 : 526.18109 : 1"
       inkscape:vp_y="0 : 1000 : 0"
       inkscape:vp_z="744.09448 : 526.18109 : 1"
       inkscape:persp3d-origin="372.04724 : 350.78739 : 1"
       id="perspective3178" />
    <inkscape:perspective
       id="perspective3188"
       inkscape:persp3d-origin="0.5 : 0.33333333 : 1"
       inkscape:vp_z="1 : 0.5 : 1"
       inkscape:vp_y="0 : 1000 : 0"
       inkscape:vp_x="0 : 0.5 : 1"
       sodipodi:type="inkscape:persp3d" />
    <radialGradient
       r="83.034187"
       fy="82.343224"
       fx="-1021.5062"
       cy="82.343224"
       cx="-1021.5062"
       gradientTransform="matrix(1,0,0,0.85945027,0,11.573318)"
       gradientUnits="userSpaceOnUse"
       id="radialGradient3500"
       xlink:href="#linearGradientUnknown"
       inkscape:collect="always" />
    <linearGradient
       id="linearGradientUnknown">
      <stop
         style="stop-color:#afafaf;stop-opacity:0;"
         id="stopUnknown0"
         offset="0" />
      <stop
         offset="0.5"
         id="stop6169"
         style="stop-color:#afafaf;stop-opacity:0.39215687;" />
      <stop
         style="stop-color:#afafaf;stop-opacity:1;"
         id="stopUnknown1"
         offset="1" />
    </linearGradient>
  </defs>
  <sodipodi:namedview
     id="base"
     pagecolor="#ffffff"
     bordercolor="#666666"
     borderopacity="1.0"
     inkscape:pageopacity="0.0"
     inkscape:pageshadow="2"
     inkscape:zoom="0.35"
     inkscape:cx="62.142856"
     inkscape:cy="-7.142856"
     inkscape:document-units="px"
     inkscape:current-layer="layer1"
     showgrid="false"
     inkscape:window-width="566"
     inkscape:window-height="488"
     inkscape:window-x="220"
     inkscape:window-y="220"
     inkscape:window-maximized="0" />
  <metadata
     id="metadata3175">
    <rdf:RDF>
      <cc:Work
         rdf:about="">
        <dc:format>image/svg+xml</dc:format>
        <dc:type
           rdf:resource="http://purl.org/dc/dcmitype/StillImage" />
        <dc:title></dc:title>
      </cc:Work>
    </rdf:RDF>
  </metadata>
  <g
     inkscape:label="Layer 1"
     inkscape:groupmode="layer"
     id="layer1"
     transform="translate(-312.85714,-425.21933)">
    <g
       id="Tea Country"
       transform="translate(112.85714,-827.14287)">
      <path
         transform="matrix(0.60013489,0,0,0.70318836,863.04153,1244.4594)"
         d="m -941.87268,82.343224 c 0,37.534986 -35.65315,67.963116 -79.63352,67.963116 -43.9804,0 -79.6336,-30.42813 -79.6336,-67.963116 0,-37.534991 35.6532,-67.963112 79.6336,-67.963112 43.98037,0 79.63352,30.428121 79.63352,67.963112 z"
         sodipodi:ry="67.963112"
         sodipodi:rx="79.633545"
         sodipodi:cy="82.343224"
         sodipodi:cx="-1021.5062"
         id="Tea Country Icon"
         style="fill:url(#radialGradient3500);fill-opacity:1;stroke:#000000;stroke-width:6.8012886;stroke-linecap:butt;stroke-linejoin:round;stroke-miterlimit:4;stroke-opacity:1;stroke-dasharray:none;stroke-dashoffset:55.5000029"
         sodipodi:type="arc" />
      <path
         d="m 276.36565,1334.1244 c -7.19536,-4.5228 -12.64323,-9.2511 -16.34362,-14.1851 l 4.93392,-4.0088 c 4.11155,4.5228 9.25104,8.5316 15.41851,12.0265 l -4.00881,6.1674 z m -56.74009,-3.7005 c 4.72832,-2.8781 9.55945,-7.4008 14.49339,-13.5683 l 5.24229,3.0837 c 1.23345,0.8224 0.92508,1.4391 -0.92511,1.8503 -4.52279,5.9618 -9.66228,10.7929 -15.4185,14.4934 z M 215,1306.6794 c 16.24081,-5.345 27.13654,-12.9515 32.68723,-22.8193 l 6.47577,1.5418 c 1.02786,0.2056 0.82228,0.8224 -0.61674,1.8502 5.96177,7.4009 16.44634,13.26 31.45375,17.5771 l -1.85022,6.1674 c -13.36277,-3.2892 -24.46408,-9.9706 -33.30397,-20.044 -5.55069,6.7841 -12.54041,12.4376 -20.96916,16.9603 l 17.88546,0 0,-8.9427 5.85903,0 c 1.6446,0.2056 1.74739,0.8223 0.30837,1.8502 l 0,7.0925 18.19383,0 0,5.859 -18.19383,0 0,22.8194 -6.1674,0 0,-22.8194 -18.5022,0 0,-5.5506 c -3.08372,1.8502 -6.68137,3.4949 -10.79295,4.9339 L 215,1306.6794 z m 24.97798,-31.1453 19.11894,0 0,-7.4009 5.85903,0 c 1.64459,0.2056 1.74738,0.8224 0.30837,1.8502 l 0,5.5507 17.5771,0 0,5.859 -17.5771,0 0,7.0925 -6.1674,0 0,-7.0925 -19.11894,0 0,7.7092 -6.1674,0 0,-7.7092 -17.26873,0 0,-5.859 17.26873,0 0,-7.0926 5.85903,0 c 1.64461,0.2057 1.7474,0.8224 0.30837,1.8503 z"
         id="Tea Country Kanji"
         style="font-size:78.94273376px;font-style:normal;font-variant:normal;font-weight:normal;font-stretch:normal;text-align:center;text-anchor:middle;fill:#000000;fill-opacity:1;stroke:none;font-family:MS PGothic;-inkscape-font-specification:MS PGothic" />
    </g>
  </g>
</svg>
