<?xml version="1.0" encoding="UTF-8" standalone="no"?>
<!-- Created with Inkscape (http://www.inkscape.org/) -->

<svg
   xmlns:dc="http://purl.org/dc/elements/1.1/"
   xmlns:cc="http://creativecommons.org/ns#"
   xmlns:rdf="http://www.w3.org/1999/02/22-rdf-syntax-ns#"
   xmlns:svg="http://www.w3.org/2000/svg"
   xmlns="http://www.w3.org/2000/svg"
   xmlns:xlink="http://www.w3.org/1999/xlink"
   xmlns:sodipodi="http://sodipodi.sourceforge.net/DTD/sodipodi-0.dtd"
   xmlns:inkscape="http://www.inkscape.org/namespaces/inkscape"
   width="100"
   height="100"
   id="svg5101"
   version="1.1"
   inkscape:version="0.47 r22583"
   sodipodi:docname="New document 31">
  <defs
     id="defs5103">
    <inkscape:perspective
       sodipodi:type="inkscape:persp3d"
       inkscape:vp_x="0 : 526.18109 : 1"
       inkscape:vp_y="0 : 1000 : 0"
       inkscape:vp_z="744.09448 : 526.18109 : 1"
       inkscape:persp3d-origin="372.04724 : 350.78739 : 1"
       id="perspective5109" />
    <inkscape:perspective
       id="perspective6023"
       inkscape:persp3d-origin="0.5 : 0.33333333 : 1"
       inkscape:vp_z="1 : 0.5 : 1"
       inkscape:vp_y="0 : 1000 : 0"
       inkscape:vp_x="0 : 0.5 : 1"
       sodipodi:type="inkscape:persp3d" />
    <radialGradient
       r="83.034187"
       fy="82.343224"
       fx="-1021.5062"
       cy="82.343224"
       cx="-1021.5062"
       gradientTransform="matrix(1,0,0,0.85945027,0,11.573318)"
       gradientUnits="userSpaceOnUse"
       id="radialGradient3518"
       xlink:href="#linearGradientUnknown"
       inkscape:collect="always" />
    <linearGradient
       id="linearGradientUnknown">
      <stop
         style="stop-color:#afafaf;stop-opacity:0;"
         id="stopUnknown0"
         offset="0" />
      <stop
         offset="0.5"
         id="stop6169"
         style="stop-color:#afafaf;stop-opacity:0.39215687;" />
      <stop
         style="stop-color:#afafaf;stop-opacity:1;"
         id="stopUnknown1"
         offset="1" />
    </linearGradient>
  </defs>
  <sodipodi:namedview
     id="base"
     pagecolor="#ffffff"
     bordercolor="#666666"
     borderopacity="1.0"
     inkscape:pageopacity="0.0"
     inkscape:pageshadow="2"
     inkscape:zoom="0.35"
     inkscape:cx="185"
     inkscape:cy="127.14285"
     inkscape:document-units="px"
     inkscape:current-layer="layer1"
     showgrid="false"
     inkscape:window-width="566"
     inkscape:window-height="488"
     inkscape:window-x="176"
     inkscape:window-y="176"
     inkscape:window-maximized="0" />
  <metadata
     id="metadata5106">
    <rdf:RDF>
      <cc:Work
         rdf:about="">
        <dc:format>image/svg+xml</dc:format>
        <dc:type
           rdf:resource="http://purl.org/dc/dcmitype/StillImage" />
        <dc:title></dc:title>
      </cc:Work>
    </rdf:RDF>
  </metadata>
  <g
     inkscape:label="Layer 1"
     inkscape:groupmode="layer"
     id="layer1"
     transform="translate(-190,-559.50504)">
    <g
       id="Noodle Country"
       transform="translate(89.999996,-992.85716)">
      <path
         transform="matrix(0.60013489,0,0,0.70318836,763.04153,1544.4594)"
         d="m -941.87268,82.343224 c 0,37.534986 -35.65315,67.963116 -79.63352,67.963116 -43.9804,0 -79.6336,-30.42813 -79.6336,-67.963116 0,-37.534991 35.6532,-67.963112 79.6336,-67.963112 43.98037,0 79.63352,30.428121 79.63352,67.963112 z"
         sodipodi:ry="67.963112"
         sodipodi:rx="79.633545"
         sodipodi:cy="82.343224"
         sodipodi:cx="-1021.5062"
         id="Noodle Country Icon"
         style="fill:url(#radialGradient3518);fill-opacity:1;stroke:#000000;stroke-width:6.8012886;stroke-linecap:butt;stroke-linejoin:round;stroke-miterlimit:4;stroke-opacity:1;stroke-dasharray:none;stroke-dashoffset:55.5000029"
         sodipodi:type="arc" />
      <path
         d="m 134.33054,1572.4877 c 4.88143,2.7337 9.1771,6.0531 12.88703,9.9582 l -2.92887,4.979 c -5.27199,-5.8577 -9.47003,-9.4699 -12.59414,-10.8368 -1.17157,2.3432 -2.73363,4.7839 -4.68619,7.3222 l 13.17991,0 0,4.6862 -16.10878,0 0,-1.1716 c -2.53837,2.929 -4.6862,5.0768 -6.44352,6.4436 L 115,1588.8894 c 7.22454,-6.4435 12.20361,-13.2775 14.93724,-20.5021 l 4.97908,0.8786 c 1.56204,0.1954 1.56204,0.7811 0,1.7574 z m 19.03766,27.2385 0,2.9289 -4.97908,0 0,-31.9247 31.33891,0 0,31.3389 -4.97908,0 0,-2.3431 z m -32.51046,-7.6151 21.38075,0 0,21.9666 -16.40167,0 0,4.3933 16.40167,0 0,4.6862 -16.40167,0 0,4.1004 17.57322,0 0,1.4644 3.80753,0 0,-22.5523 33.9749,0 0,22.5523 3.80753,0 0,5.5649 -41.58996,0 0,-2.3431 -17.57322,0 0,4.3933 -4.97908,0 z m 50.08368,1.4645 c -2.53841,-2.7336 -4.97913,-4.8814 -7.32217,-6.4435 -1.95263,2.5383 -3.90521,4.6862 -5.85774,6.4435 l -3.22176,-4.1004 c 4.10037,-3.3194 6.83398,-7.5174 8.20084,-12.5942 l 4.3933,0.5858 c 1.56201,0.1953 1.56201,0.7811 0,1.7573 l -1.75732,4.1004 c 3.12407,1.7574 5.76005,3.6123 7.90795,5.5649 z m -14.05858,17.2803 -4.68619,0 0,17.8661 4.68619,0 z m 4.97908,17.8661 4.6862,0 0,-17.8661 -4.6862,0 z m 14.35147,-17.8661 -4.68619,0 0,17.8661 4.68619,0 z m -50.37657,-14.0586 0,4.3933 11.42259,0 0,-4.3933 z m 0,7.908 0,4.6862 11.42259,0 0,-4.6862 z m 27.53138,-9.6653 21.38075,0 0,-19.6234 -21.38075,0 z"
         id="Noodle Country Kanji"
         style="font-size:74.9790802px;font-style:normal;font-variant:normal;font-weight:normal;font-stretch:normal;text-align:center;text-anchor:middle;fill:#000000;fill-opacity:1;stroke:none;font-family:MS PGothic;-inkscape-font-specification:MS PGothic" />
    </g>
  </g>
</svg>
